<svg xmlns="http://www.w3.org/2000/svg" version="1.1" xmlns:xlink="http://www.w3.org/1999/xlink" xmlns:svgjs="http://svgjs.dev/svgjs" width="1440" height="560" preserveAspectRatio="none" viewBox="0 0 1440 560"><g mask="url(&quot;#SvgjsMask1024&quot;)" fill="none"><rect width="1440" height="560" x="0" y="0" fill="#0e2a47"></rect><circle r="6.67" cx="1416.26" cy="94.13" filter="url(#SvgjsFilter1025)" fill="rgba(46, 54, 140, 1)"></circle><circle r="9.135" cx="382.495" cy="505.795" filter="url(#SvgjsFilter1025)" fill="rgba(46, 54, 140, 1)"></circle><circle r="6.455" cx="1424.0749999999998" cy="339.695" filter="url(#SvgjsFilter1025)" fill="rgba(54, 57, 88, 1)"></circle><circle r="8.86" cx="917.87" cy="275.93" filter="url(#SvgjsFilter1025)" fill="rgba(41, 46, 106, 1)"></circle><circle r="5.81" cx="106.59" cy="338.07" filter="url(#SvgjsFilter1025)" fill="rgba(46, 54, 140, 1)"></circle><circle r="5.66" cx="1295.45" cy="306.92" filter="url(#SvgjsFilter1025)" fill="rgba(54, 57, 88, 1)"></circle><circle r="6.465" cx="718.025" cy="34.905" filter="url(#SvgjsFilter1025)" fill="rgba(46, 54, 140, 1)"></circle><circle r="8.805" cx="1013.535" cy="414.685" filter="url(#SvgjsFilter1025)" fill="rgba(41, 46, 106, 1)"></circle><circle r="9.285" cx="529.405" cy="32.185" filter="url(#SvgjsFilter1025)" fill="rgba(46, 54, 140, 1)"></circle><circle r="5.55" cx="1027.13" cy="134.20000000000002" filter="url(#SvgjsFilter1025)" fill="rgba(54, 57, 88, 1)"></circle><circle r="5.34" cx="1017.5500000000001" cy="53.269999999999996" filter="url(#SvgjsFilter1025)" fill="rgba(41, 46, 106, 1)"></circle><circle r="8.885" cx="12.535" cy="17.365000000000002" filter="url(#SvgjsFilter1025)" fill="rgba(54, 57, 88, 1)"></circle><circle r="6.3" cx="492.73" cy="376.90000000000003" filter="url(#SvgjsFilter1025)" fill="rgba(41, 46, 106, 1)"></circle><circle r="8.975" cx="912.9150000000001" cy="299.58500000000004" filter="url(#SvgjsFilter1025)" fill="rgba(41, 46, 106, 1)"></circle><circle r="5.24" cx="322.3" cy="495.34000000000003" filter="url(#SvgjsFilter1025)" fill="rgba(41, 46, 106, 1)"></circle><circle r="7.4" cx="466.96999999999997" cy="404.45" filter="url(#SvgjsFilter1025)" fill="rgba(46, 54, 140, 1)"></circle><circle r="5.025" cx="1439.1650000000002" cy="183.145" filter="url(#SvgjsFilter1025)" fill="rgba(41, 46, 106, 1)"></circle><circle r="6.59" cx="1059.48" cy="204.75" filter="url(#SvgjsFilter1025)" fill="rgba(54, 57, 88, 1)"></circle><circle r="6.925" cx="679.2049999999999" cy="34.055" filter="url(#SvgjsFilter1025)" fill="rgba(54, 57, 88, 1)"></circle><circle r="6.91" cx="1089.0900000000001" cy="379.77000000000004" filter="url(#SvgjsFilter1025)" fill="rgba(46, 54, 140, 1)"></circle><path d="M1208.7 480.3L1191.7 508.8 1163 515.9 1171.2 487.5 1200.4 471.6C1200.4 471.6 1200.7 471.4 1200.7 471.4 1201.2 470.8 1201.3 469.7 1201 468.8 1200.5 467.7 1199.1 467.4 1198.2 468.2L1172.7 482.1 1176.7 468.3 1187.8 462.1C1187.8 462.1 1188.1 461.8 1188.1 461.8 1188.7 461.2 1188.7 460.1 1188.5 459.2 1187.9 458.1 1186.5 457.8 1185.7 458.6L1177.9 462.7 1181 452.6C1181.3 451.7 1180.4 450.3 1179.6 450 1178.5 449.4 1177.3 450.5 1177 451.4L1174 461.5 1169.9 453.8C1169.4 452.6 1168 452.3 1167.1 453.1 1166 453.7 1165.6 455.1 1166.5 456L1172.7 467.1 1168.5 480.6 1154.6 455.1C1154.1 454 1152.7 453.7 1151.8 454.5 1150.6 455.1 1150.3 456.5 1151.2 457.3L1167 486.5 1158.7 514.9 1138 493.3 1138.7 459.9C1138.7 458.8 1137.9 457.9 1136.7 457.9 1135.6 457.9 1134.7 458.7 1134.7 459.8L1134.1 489.2 1124.1 478.8 1124.4 466.4C1124.4 465.3 1123.6 464.4 1122.4 464.4 1121.3 464.4 1120.4 465.2 1120.4 466.3L1120.3 474.8 1112.5 466.7C1112 465.6 1110.5 465.8 1109.7 466.7 1108.8 467.5 1108.8 468.6 1109.6 469.5L1116.8 477 1108.3 476.8C1107.2 476.8 1106.3 477.6 1106.3 478.8S1107.1 480.8 1108.2 480.8L1120.7 481 1130.7 491.4 1101.2 490.8C1100.1 490.8 1099.3 491.6 1099.2 492.8 1099.2 493.9 1100 494.8 1101.2 494.8L1134.5 495.5 1155 516.8 1126.3 523.9 1098.6 507.2C1097.5 506.6 1096.4 507.1 1095.5 508 1094.9 509.1 1095.5 510.2 1096.3 511.1L1121.2 526 1107.2 529.4 1096.3 522.7C1095.2 522.1 1094.1 522.6 1093.2 523.5 1092.6 524.6 1093.2 525.7 1093.7 526.3L1101.3 530.7 1091 533.3C1090.2 533.6 1089 534.7 1089.6 535.8 1090.1 537 1090.9 537.9 1092.1 537.3L1102.3 534.7 1097.9 542.2C1097.3 543.4 1097.9 544.5 1098.4 545.1 1099.3 545.4 1100.4 545.4 1101 544.9 1101 544.9 1101.3 544.6 1101.3 544.6L1108 533.7 1121.9 530.3 1107 555.2C1106.4 556.3 1107 557.4 1107.5 558 1108.3 558.3 1109.5 558.3 1110.1 557.8 1110.1 557.8 1110.3 557.5 1110.3 557.5L1127.3 529 1156.1 521.9 1147.8 550.3 1118.7 566.2C1117.5 566.7 1117.2 568.1 1118 569 1118.6 570.1 1120 570.4 1120.8 569.6L1146.3 555.7 1142.3 569.5 1131.2 575.7C1130 576.3 1129.7 577.7 1130.6 578.6 1131.1 579.7 1132.5 580 1133.4 579.2L1141.1 575.1 1138.1 585.2C1137.8 586.1 1138.6 587.5 1139.4 587.8 1140.3 588.1 1141.1 587.8 1141.7 587.3 1142 587 1142.3 586.7 1142.3 586.2L1145.3 576 1149.4 583.8C1150 584.9 1151.4 585.2 1152.2 584.4 1152.2 584.4 1152.5 584.1 1152.5 584.1 1153.1 583.6 1153.1 582.4 1152.8 581.6L1146.6 570.4 1150.5 556.6 1164.4 582.1C1165 583.2 1166.4 583.5 1167.3 582.7 1167.3 582.7 1167.5 582.4 1167.5 582.4 1168.1 581.9 1168.1 580.7 1167.9 579.9L1152.1 550.7 1160.3 522.3 1180.8 543.7 1180.1 577C1180.1 578.2 1180.9 579 1182 579.1 1183.2 579.1 1184 578.2 1184.1 577.1L1184.9 548 1194.9 558.4 1194.7 570.8C1194.6 572 1195.5 572.8 1196.6 572.8S1198.6 572 1198.6 570.9L1198.8 562.4 1206 569.9C1206.8 570.8 1208 570.8 1208.8 570 1209.7 569.2 1209.7 568 1208.9 567.2L1201.7 559.7 1210.2 559.8C1210.7 559.8 1211.3 559.9 1211.9 559.3S1212.5 558.2 1212.5 557.6C1212.5 556.5 1211.7 555.6 1210.5 555.6L1198.1 555.3 1188.1 544.9 1217.5 545.6C1218.1 545.6 1218.7 545.6 1219.2 545 1219.5 544.7 1219.8 543.9 1219.8 543.3 1219.9 542.2 1219 541.3 1217.9 541.3L1184.5 540.6 1164 519.3 1192.8 512.2 1221.3 529.2C1222.1 529.5 1223.2 529.5 1223.8 529 1223.8 529 1224.1 528.7 1224.1 528.7 1224.7 527.6 1224.1 526.5 1223.6 525.9L1198.7 510.9 1212.7 507.5 1223.5 514.3C1224.4 514.6 1225.5 514.6 1226.1 514 1226.1 514 1226.4 513.8 1226.4 513.8 1227 512.6 1226.4 511.5 1225.9 510.9L1218.3 506.5 1228.6 503.9C1228.9 503.6 1229.4 503.6 1229.7 503.4 1230.3 502.8 1230.6 502 1230.3 501.1 1229.8 500 1229 499.1 1227.8 499.7L1217.6 502.3 1222 494.7C1222.6 493.6 1222 492.5 1221.5 491.9 1220.3 491.3 1219.2 491.8 1218.6 492.4L1211.9 503.3 1198 506.7 1212.9 481.8C1213.5 480.7 1212.9 479.5 1212.4 479 1210.7 478.9 1209.3 479.2 1208.7 480.3Z" fill="rgba(46, 54, 140, 1)"></path><path d="M560.7 149.8L604.9 175.3 609.3 193.5 594.4 184.8C593.1 183.4 591.3 184.3 589.9 185.7 589.5 187 589.9 189.3 591.3 189.7L611.6 202.1 616.5 219.7 598.8 214.7 587.2 193.8C587.2 193.8 586.7 193.3 586.7 193.3 585.8 192.4 584 192.4 582.6 192.9 581.3 194.2 580.8 195.6 581.7 197.4L590.2 212.4 572.6 207.3 547 163.3C547 163.3 547 162.4 547 162.4 546.1 161.5 544.3 161.5 543 161.9 541.1 162.8 540.7 165.1 542 166.4L564 205 542.3 199.5 532.5 182.2C532.5 182.2 532.5 182.2 532 181.8 531.1 180.9 529.8 180.4 528.4 180.9 527 182.2 526.1 184 527 185.8L533.7 197.2 517.9 193C516.1 192.1 514.8 193.5 514.3 194.8 513.4 196.6 514.3 198.4 516.5 198.9L531.9 203.5 520.6 209.3C519.2 210.7 518.3 212.5 519.6 213.8 520.5 215.7 521.9 216.1 523.7 215.2L540.9 205.3 562.2 211.3 523.2 233.8C521.8 234.2 521.3 236.5 522.2 238.3 523.1 239.2 524.9 240.1 526.8 239.2L570.8 213.6 588.4 218.7 573.4 227.2C571.6 228.1 571.6 229.9 572.5 231.7 572.9 233.1 575.2 233.6 576.6 233.1L597 221 615.1 225.6 601.9 238.7 578.4 238.6C576.5 238.6 575.2 239.9 575.2 241.7 574.7 243.1 576.5 244.9 578.3 244.9L595.5 245 582.3 258 531.2 257.3C529.4 257.3 528 258.7 528 260.5 528 262.3 529.4 263.7 531.2 263.7L576 264.3 560.5 279.7 540.6 279.6C538.8 279.6 537.4 280.9 537.4 282.7 537.4 284.5 538.8 285.9 540.6 285.9L553.7 286.4 542.3 297.7C541 299 541 300.8 542.3 302.2 543.7 303.6 545.5 303.6 546.8 302.2L558.2 291 558.1 303.6C558.1 305.4 559.5 306.8 561.3 306.8S564.5 305.5 564.5 303.7L564.6 284.7 580.5 268.9 580.3 313.2C580.3 315.1 581.6 316.4 583.4 316.4 585.2 316.4 586.6 315.1 586.6 313.3L586.8 262.6 600 249.5 599.9 266.7C599.9 268.5 601.3 269.9 603.1 269.9 604.9 269.9 606.3 268.6 606.3 266.8L606.4 243.2 619.1 230.6 623.6 247.8 611.7 268.6C611.2 269.9 611.7 272.2 613 272.7 614.8 273.6 616.2 273.1 617.6 271.8L626.2 256.9 630.7 274.1 605.1 318.3C604.2 320.1 604.7 321.5 606 322.9 607.8 323.8 609.6 322.9 610.5 322L633.4 283.2 638.7 304.9 629.1 321.6C627.7 323 628.6 324.8 630 326.1 631.3 326.6 633.6 326.2 634.5 324.4L640.9 313.5 645.4 328.9C645.3 330.7 647.2 331.7 649.4 331.2 650.8 330.8 651.7 329 651.2 327.6L647.2 311.7 658.5 318.6C660.3 319.5 662.2 318.6 662.6 317.2 664 315.9 663.5 314.5 662.6 313.6 662.2 313.2 662.2 313.2 661.7 312.7L645 303.1 639.7 281.4 678.1 303.7C679.4 305.1 681.2 304.2 682.6 302.9 683 301.5 682.6 300.1 681.7 299.2 681.3 298.8 681.3 298.8 681.3 298.8L637 272.3 632.6 255.1 647.5 263.8C649.3 264.7 650.6 264.2 652 262.9 652.5 261.5 652.5 259.7 651.6 258.8 651.1 258.4 651.1 258.4 650.7 257.9L629.9 246 625.5 228.8 642.6 233.4 654.8 253.9C655.7 255.7 657.9 256.1 659.3 255.7 660.6 254.3 661.6 252.5 660.2 251.2L651.7 236.2 669.3 240.3 694.9 285.3C695.3 286.6 697.6 287.1 699 286.6 700.3 285.3 701.2 283.5 700.3 281.7L678.3 243.1 699.6 249.1 709 265.9C709.9 267.7 712.2 268.2 713.5 266.8 714.9 266.4 715.8 264.6 714.9 262.7L708.2 251.4 724 255.5C725.4 256 727.2 255.1 728.1 253.3 728.1 252.4 727.6 251 726.7 250.1 726.7 250.1 726.3 249.7 725.8 249.2L710 245.1 721.4 238.3C722.7 237.9 723.2 235.6 722.7 234.3 722.3 233.8 722.3 233.8 722.3 233.8 720.9 232.4 719.1 232.4 718.2 233.3L701.4 242.8 679.7 237.2 718.8 214.8C720.1 213.4 720.6 212.1 719.7 210.3 719.7 210.3 719.2 209.8 719.2 209.8 718.3 208.9 717 208.4 715.2 209.3L670.7 234.5 653.5 229.9 668.5 221.3C669.9 220 670.8 218.2 669.4 216.8 669.9 216.4 669.4 215.9 669.4 215.9 668.5 215 666.7 215 665.4 215.4L644.9 227.6 627.3 222.5 640 209.9 663.6 210C665.4 210 667.2 208.2 667.2 206.4 666.8 205 665.4 203.7 664.1 203.2L646.4 203.6 659.6 190.5 710.3 190.8C712.1 190.8 713.4 189.4 713.5 187.6 713.5 185.8 712.1 184.4 710.3 184.4L666 184.2 681.9 168.5 700.9 168.5C702.7 168.5 704 167.2 704.1 165.4S702.7 162.2 700.9 162.2L688.2 162.1 699.6 150.9C701 149.5 701 147.7 699.6 146.4 698.3 145 696.5 145 695.1 146.3L683.7 157.6 683.3 144.5C683.3 143.6 683.3 142.7 682.9 142.2 682.4 141.8 681.1 141.3 680.2 141.3 678.4 141.3 677 142.6 677 144.4L677.4 163.9 661.4 179.7 661.2 134.9C661.2 134 661.2 133.1 660.8 132.6 660.3 132.1 659 131.7 658.1 131.7 656.2 131.7 654.9 133 654.9 134.8L655.1 186 641.9 199 642.4 181.4C642.4 180.5 641.5 179.6 641.1 179.1 640.6 178.7 640.2 178.2 639.3 178.2 637.5 178.2 635.7 180 636.1 181.4L635.5 205.3 622.8 218 617.9 200.3 630.2 180C630.7 178.6 630.7 176.8 629.8 175.9 629.3 175.4 629.3 175.4 628.9 175.9 627.5 174.5 625.3 175 624.4 176.8L615.7 191.7 610.8 174 637.2 129.8C637.7 128.4 637.3 127.1 636.4 126.1 635.9 125.7 635.9 125.7 635.9 125.7 634.1 124.8 632.3 124.8 631.4 126.6L608.6 165.4 603.2 143.6 612.8 126.9C613.7 125.1 613.3 123.8 612.4 122.9 612.4 122.9 611.9 122.4 611.9 122.4 610.1 121.5 608.3 122.4 607.4 123.3L601 135 597 119.2C596.6 118.7 596.1 118.3 595.7 117.8 595.2 117.4 593.9 116.9 593 116.9 591.1 117.8 589.8 119.1 590.7 121L594.7 136.8 583.4 130C581.6 129.1 579.8 130 578.9 130.9 577.9 132.7 578.8 134.5 580.2 135.8L596.9 145.4 602.7 166.7 564.3 144.4C562.5 143.4 560.2 143.9 559.8 145.2 558.9 147.1 558.9 148.9 560.7 149.8Z" fill="rgba(41, 46, 106, 1)"></path><path d="M494.3 449.9L535 472 539 484.2 519.4 505 506.7 502.2 482.4 462.6C482 462.2 482 462.2 481.6 461.8 480.8 461 479.6 460.7 478 461.5 476.9 462.7 476.5 463.9 477.4 465.5L498.7 500.1 479.1 495.6 469.5 480.4C469.5 480.4 469.1 480 469.1 480 468.3 479.3 467.1 478.9 465.5 479.7 464.4 480.2 464 482.2 464.9 483.7L470.7 493.8 456.4 490.3C455.2 490 453.6 490.8 452.9 492.4S453.8 495.6 455.4 496.3L469.3 499.4 459.6 505.7C458.1 506.5 457.7 508.5 458.6 510.1 459.4 510.8 461 511.6 462.6 510.7L477.7 501.2 497.7 506.1 463.1 527.4C461.5 528.2 461.2 530.2 461.6 531.4 462.8 532.5 464.5 533.3 466 532.4L505.2 507.8 518.4 511 526.4 537.6 517.2 547.4 470.9 549.3C469.3 549.4 468.2 550.6 468.2 552.2S469.5 554.9 471.1 554.8L511.8 553.2 497.7 568.3 480.2 568.8C478.7 568.9 477.5 570.1 477.2 572.1S478.4 574.8 480 574.8L492.3 574 481.9 585C480.8 586.2 481.2 588.2 482.5 589.3 483.7 590.5 485.3 590.4 486.4 589.2L496.8 578.2 497.2 590.1C496.8 592.1 498 593.2 500 592.8 501.6 592.7 502.7 591.5 502.7 589.9L502.1 572.5 516.3 557.4 517.2 598.2C517.3 599.7 518.9 601.3 520.5 601.2S523.2 599.9 523.2 598.4L521.7 551.7 530.9 541.9 558.4 548.5 562 561.1 539.9 601.8C539.2 603.4 540 605 541.2 606.1 542.8 606.9 544.4 606 545.6 604.8L564.6 568.9 570.4 588.2 561.8 603.9C561 605.5 561.9 607 563.1 608.2 564.3 608.6 566.3 608.1 567 606.5L572.6 596.4 577 610.5C577.5 611.7 579.1 612.4 580.7 612.4 582.2 611.6 583 609.9 582.5 608.8L578.1 594.6 589 600.2C590.2 600.6 592.2 600.1 592.5 598.9 593.7 597.7 593.2 596.5 592 595.4 592 595.4 591.6 595 591.6 595L575.9 586.4 570.1 567.2 606 586.2C607.6 587 609.2 586.9 609.9 585.3 610.7 583.7 610.2 582.5 609.4 581.8 609 581.4 609 581.4 609 581.4L567.5 559.3 563.9 546.8 583.5 525.9 595.9 529.1 620.9 568.7C621.3 569.9 623.3 570.2 624.5 569.8 626 569 626.4 567 625.5 565.4L604.2 530.8 623.8 535.4 633.4 550.5C634.2 552.1 635.8 552.8 637 551.6 638.5 550.7 638.9 548.8 638.4 547.6L631.8 537.5 646.1 541C647.7 540.9 649.3 540.1 650 538.5 650 537.7 649.6 536.5 648.8 535.8 648.3 535.4 648.3 535.4 647.6 535.4L633.2 531.9 643.3 525.2C644.8 524.4 644.8 522.8 644.3 521.6 643.9 521.3 643.9 521.3 643.5 520.9 642.7 520.1 641.5 519.7 640.3 520.2L625.2 529.8 605.6 525.2 640.2 503.9C641.4 502.7 642.1 501.1 640.9 500 640.9 499.2 640.9 499.2 640.5 498.8 639.6 498 638.1 498.1 636.9 498.5L597.3 523.5 584.9 520.3 576.5 493.3 585.3 483.9 632 482.4C633.6 482.4 635.1 480.7 635.1 479.1S633.4 476 631.8 476.1L591.1 477.8 604.9 463.1 622.7 462.1C624.2 462.1 625.4 460.8 625.3 459.2 625.3 457.7 624.1 456.5 622.5 456.6L610.6 456.9 621 445.9C621.7 445.1 622.1 443.1 620.8 442 619.6 440.8 617.2 440.9 616.5 441.7L606.1 452.7 605.7 440.8C605.7 440.1 605.7 439.3 605.3 438.9 604.5 438.1 603.7 438.1 602.9 438.2 601.3 438.2 600.2 439.4 600.2 441L600.4 458.8 586.6 473.5 585.7 432.8C585.7 432 585.2 431.6 584.4 430.8 584 430.4 583.6 430.1 582.8 430.1 581.2 430.1 579.7 431.8 579.8 433.4L580.8 479.7 572 489.1 544.9 482.8 540.5 470.2 563 429.1C563.3 427.9 563.3 426.3 562.5 425.6 562.1 425.2 562.1 425.2 561.7 425.6 560.5 424.5 558.5 424.9 557.7 426.5L538.7 462.4 532.5 442.8 541.1 427C541.5 425.8 541.1 424.7 540.2 423.9 540.2 423.9 539.8 423.5 539.8 423.5 538.6 422.4 536.6 422.8 535.9 424.4L530.3 435.3 525.9 421.2C525.9 420.4 525.5 420 525 419.6 524.2 418.9 523 418.5 522.6 418.9 520.7 419.4 519.9 421 520 422.6L524.4 436.7 514.3 431.1C512.7 430.3 510.7 430.8 510 432.4 509.6 433.6 510.1 435.6 511.3 435.9L527 444.5 532.8 463.8 496.9 444.7C495.3 443.9 493.7 444.8 492.6 446 492.2 447.2 492.7 449.2 494.3 449.9ZM526.2 506.8L541.2 490.8 543.5 488.4 546.7 489.1 567.4 494 571 495 571.9 498.2 578.1 518.6 579 521.7 576.7 524.2 561.7 540.1 559.4 542.5 556.2 541.9 535.5 537 532.3 536.3 531 532.7 524.8 512.3 523.9 509.2 526.2 506.8Z" fill="rgba(54, 57, 88, 1)"></path><path d="M1320.3 126.1L1311.9 176.5 1296.5 187 1299.4 170C1300.2 168.3 1298.7 166.9 1297 166.1 1295.6 166.1 1293.6 167.3 1293.7 168.8L1289.2 192.1 1274.4 202.9 1273 184.6 1288.4 166.4C1288.4 166.4 1288.7 165.8 1288.7 165.8 1289.2 164.6 1288.6 162.9 1287.7 161.8 1286 161 1284.5 161 1283.1 162.5L1272.1 175.8 1270.7 157.5 1302.9 118.1C1302.9 118.1 1303.7 117.8 1303.7 117.8 1304.3 116.6 1303.7 114.9 1302.8 113.8 1301.3 112.4 1299 112.8 1298.2 114.5L1269.8 148.6 1267.4 126.4 1280.1 111.1C1280.1 111.1 1280.1 111.1 1280.3 110.5 1280.9 109.3 1280.8 107.9 1279.9 106.8 1278.2 106 1276.2 105.8 1274.8 107.2L1266.5 117.5 1264.8 101.3C1265.1 99.2 1263.3 98.4 1261.9 98.5 1259.9 98.3 1258.5 99.7 1258.9 102L1259.9 118 1250.5 109.5C1248.8 108.6 1246.7 108.4 1245.9 110.2 1244.6 111.6 1244.6 113.1 1246.1 114.5L1261.4 127.1 1263.2 149.1 1228.5 120.5C1227.6 119.4 1225.3 119.7 1224 121.2 1223.4 122.4 1223.2 124.4 1224.7 125.7L1264.1 158 1265.5 176.3 1252.3 165.2C1250.8 163.9 1249.1 164.5 1247.7 166 1246.6 166.8 1247 169.1 1247.9 170.2L1266.4 185.1 1268.4 203.7 1251.6 195.9 1243.4 173.8C1242.8 172.1 1241 171.3 1239.3 172 1237.9 172 1236.8 174.3 1237.5 176L1243.4 192.2 1226.6 184.4 1209.3 136.3C1208.6 134.6 1206.9 133.8 1205.2 134.4 1203.5 135 1202.7 136.8 1203.3 138.5L1218.4 180.6 1198.7 171.5 1191.8 152.9C1191.1 151.2 1189.4 150.4 1187.7 151 1186 151.6 1185.2 153.4 1185.8 155.1L1189.9 167.5 1175.4 160.8C1173.7 160 1172 160.7 1171.2 162.4 1170.4 164.2 1171 165.8 1172.7 166.7L1187.3 173.3 1175.4 177.7C1173.7 178.4 1172.9 180.1 1173.5 181.8S1175.9 184.3 1177.6 183.7L1195.4 177.1 1215.8 186.5 1174.2 201.8C1172.5 202.5 1171.7 204.2 1172.3 205.9 1172.9 207.6 1174.7 208.4 1176.4 207.8L1223.9 190.2 1240.8 198 1224.6 203.9C1222.9 204.6 1222.1 206.3 1222.8 208 1223.4 209.7 1225.1 210.5 1226.8 209.9L1248.9 201.7 1265.2 209.2 1250.6 219.4 1227 215.6C1225.6 215.6 1223.6 216.8 1223.7 218.3 1223.4 220.3 1224.3 221.4 1226.1 222.2L1243.1 225.1 1228.5 235.3 1178.1 226.9C1176.1 226.7 1175 227.6 1174.2 229.3 1174 231.3 1175.4 232.7 1176.6 233.3L1220.9 241 1202.5 253.6 1183.5 250.5C1181.7 249.7 1180.3 251.2 1179.5 252.9 1179.6 254.3 1180.8 256.3 1182.8 256.5L1195.2 258.7 1182.3 268.3C1180.6 268.9 1180.4 270.9 1181.6 272.9 1182.5 274 1184.5 274.2 1185.6 273.3L1199.1 264 1196.6 277C1196.4 279 1197.9 280.4 1199.3 280.3 1201.1 281.1 1202.2 280.3 1202.7 279.1 1203 278.5 1203 278.5 1203.2 277.9L1206.4 258.9 1224.8 246.3 1217.4 290.1C1216.6 291.8 1218 293.2 1219.8 294 1221.2 294 1222.3 293.1 1222.9 291.9 1223.1 291.3 1223.1 291.3 1223.1 291.3L1232.4 240.6 1247 230.4 1244.1 247.4C1243.8 249.4 1244.7 250.5 1246.5 251.3 1247.9 251.3 1249.6 250.7 1250.1 249.5 1250.4 248.9 1250.4 248.9 1250.7 248.3L1254.5 224.7 1269.1 214.5 1270.8 232.2 1255.9 250.7C1254.5 252.2 1254.9 254.5 1255.8 255.6 1257.5 256.4 1259.5 256.6 1260.3 254.9L1271.4 241.7 1273.7 259.6 1240.6 299.3C1239.5 300.2 1239.8 302.5 1240.7 303.6 1242.5 304.4 1244.5 304.7 1245.9 303.2L1274.3 269.1 1276.1 291 1263.7 305.8C1262.3 307.2 1262.7 309.5 1264.4 310.3 1265.3 311.4 1267.3 311.7 1268.7 310.2L1277 299.9 1278.6 316.2C1278.7 317.6 1280.2 319 1282.2 319.2 1283 318.9 1284.1 318 1284.7 316.8 1284.7 316.8 1284.9 316.2 1285.2 315.7L1283.5 299.4 1293.8 307.7C1294.7 308.8 1297 308.4 1298.1 307.5 1298.4 306.9 1298.4 306.9 1298.4 306.9 1299.2 305.2 1298.6 303.5 1297.4 303L1282.7 290.5 1280.2 268.3 1315 296.9C1316.7 297.8 1318.1 297.7 1319.5 296.2 1319.5 296.2 1319.8 295.6 1319.8 295.6 1320.3 294.5 1320.3 293.1 1318.8 291.7L1279.7 258.9 1277.9 241.2 1291.2 252.2C1292.9 253 1294.9 253.2 1295.7 251.5 1296.3 251.7 1296.6 251.1 1296.6 251.1 1297.1 250 1296.5 248.3 1295.6 247.2L1277.1 232.3 1275.6 214 1291.9 221.5 1300.1 243.6C1300.7 245.3 1303 246.4 1304.7 245.7 1305.8 244.8 1306.6 243.1 1306.6 241.7L1300.1 225.3 1316.9 233 1334.5 280.6C1335.1 282.3 1336.9 283.1 1338.5 282.4 1340.2 281.8 1341.1 280.1 1340.4 278.4L1325.1 236.8 1345.4 246.1 1352 264C1352.6 265.7 1354.4 266.5 1356.1 265.8S1358.6 263.5 1357.9 261.8L1353.5 249.9 1368.1 256.6C1369.8 257.4 1371.5 256.8 1372.3 255 1373.1 253.3 1372.5 251.6 1370.7 250.8L1356.2 244.1 1368.4 239.1C1369.2 238.8 1370.1 238.5 1370.3 237.9 1370.6 237.3 1370.6 235.9 1370.2 235 1369.6 233.3 1367.9 232.5 1366.2 233.2L1348.1 240.3 1327.7 231 1369.6 215C1370.4 214.7 1371.3 214.4 1371.6 213.8 1371.8 213.2 1371.8 211.8 1371.5 210.9 1370.8 209.2 1369.1 208.4 1367.4 209.1L1319.6 227.2 1302.7 219.5 1319.4 213.8C1320.3 213.4 1320.8 212.3 1321.1 211.7 1321.4 211.1 1321.6 210.5 1321.3 209.7 1320.7 208 1318.4 206.9 1317.2 207.8L1294.6 215.7 1278.3 208.2 1293.1 197.4 1316.5 201.8C1317.9 201.8 1319.6 201.2 1320.1 200 1320.4 199.4 1320.4 199.4 1319.8 199.1 1320.6 197.4 1319.4 195.4 1317.4 195.2L1300.4 192.3 1315.3 181.5 1366 190.8C1367.4 190.7 1368.5 189.8 1369 188.7 1369.3 188.1 1369.3 188.1 1369.3 188.1 1369.5 186.1 1368.9 184.4 1366.9 184.2L1322.5 176.4 1341 163.8 1360 166.9C1362 167.1 1363.2 166.2 1363.7 165.1 1363.7 165.1 1364 164.5 1364 164.5 1364.2 162.5 1362.7 161.1 1361.5 160.6L1348.3 158.7 1361.8 149.4C1362 148.8 1362.3 148.2 1362.6 147.7 1362.8 147.1 1362.8 145.6 1362.5 144.8 1361 143.4 1359.2 142.6 1357.9 144.1L1344.4 153.4 1346.9 140.4C1347.1 138.4 1345.6 137 1344.4 136.5 1342.4 136.3 1341 137.7 1340.2 139.5L1337.1 158.5 1319.2 171.4 1326.7 127.6C1326.9 125.6 1325.7 123.6 1324.3 123.7 1322.3 123.5 1320.6 124.1 1320.3 126.1Z" fill="rgba(41, 46, 106, 1)"></path><path d="M895.5 89.3L895.1 129 887.5 136.9 863.9 130.5 860.8 119.7 881.1 85.4C881.3 85 881.3 85 881.4 84.5 881.6 83.6 881.4 82.5 880.2 81.7 878.8 81.3 877.7 81.5 876.9 82.8L859.2 112.8 854.8 96.1 862.4 82.8C862.4 82.8 862.6 82.3 862.6 82.3 862.8 81.4 862.6 80.4 861.4 79.5 860.6 78.8 858.9 79.3 858.1 80.6L852.8 89.1 849.7 76.8C849.4 75.8 848.2 74.9 846.7 75S844.6 76.9 844.7 78.5L848 90.3 839.3 85.4C838.1 84.6 836.4 85.1 835.6 86.4 835.3 87.3 835.4 88.8 836.7 89.7L850 97.3 854.3 114.4 824.3 96.8C823 95.9 821.4 96.5 820.7 97.3 820.3 98.7 820.4 100.2 821.6 101L856 120.9 858.9 132.1 841.9 148.8 830.8 145.8 810.8 111.5C810.2 110.3 808.8 109.9 807.6 110.6S806 112.7 806.7 113.8L824.3 144 807.2 139.4 799.8 126.4C799.1 125.2 797.7 124.8 796.1 125.4S794.5 127.4 795.2 128.6L800.7 137.6 788.2 134.2C786.8 133.8 785.5 134.9 785.1 136.3 784.8 137.7 785.4 138.9 786.8 139.3L799.3 142.7 790.5 147.7C788.8 148.3 788.5 149.7 789.6 151 790.3 152.1 791.7 152.5 792.8 151.9L805.8 144.4 822.9 149.1 792.4 166.2C791.2 166.8 790.7 168.7 791.4 169.9S793.5 171.4 794.6 170.8L829.4 150.9 840.5 153.9 846.5 177.5 838.5 185.2 798.8 184.8C797.2 184.9 796.4 186.2 796 187.6 796.1 189.1 797.4 189.9 798.7 190.3L833.6 190.3 821.3 202.4 805.9 202.2C804.4 202.3 803.6 203.6 803.2 204.9 803.4 206 804.6 207.3 806.1 207.2L816 207.4 807 216.4C806.3 217.2 806.4 218.8 807.1 219.9 808.3 220.8 809.9 220.7 810.6 219.9L819.5 210.9 819.6 221.4C819.8 222.4 821 223.7 822 223.5 823.4 223.9 824.1 223.1 824.5 221.7 824.5 221.7 824.6 221.2 824.6 221.2L824.8 205.9 837.1 193.8 837 228.6C837.1 230.1 837.8 231.3 839.3 231.2 840.8 231.1 841.5 230.3 841.8 229.4 841.9 229 841.9 229 841.9 229L842 188.7 850.1 180.9 873.7 187.4 876.3 198 856.3 232.9C855.6 233.7 856.1 235.3 856.9 236 858.2 236.9 859.8 236.3 860.7 235.1L878.3 205.1 882.7 221.7 875.1 235C874.3 236.3 874.3 237.8 875.7 238.2 877 239 878.6 238.5 879.3 237.7L884.3 228.6 887.4 240.9C888.1 242.1 889.4 242.9 890.9 242.8 891.5 242.5 892.2 241.7 892.4 240.8 892.6 240.3 892.6 240.3 892.2 239.7L889.1 227.4 898.2 232.4C899.5 233.2 900.7 232.6 901.4 231.8 901.5 231.3 901.5 231.3 901.6 230.8 901.9 229.9 901.7 228.9 900.9 228.1L887.5 220.5 883.1 203.9 913.1 221.5C914.5 221.9 916 221.8 916.4 220.4 917 220.1 917 220.1 917.1 219.6 917.4 218.7 916.7 217.5 915.9 216.8L881.1 196.9 878.5 186.2 895.6 169 906.3 171.9 926.1 206.7C926.8 207.9 928.7 208.4 929.8 207.7S931.5 205.2 930.8 204L913.2 173.8 929.9 178.3 937.8 191.4C938.4 192.6 939.8 193 941 192.3 942.2 191.7 942.6 190.3 941.9 189.1L936.8 180.2 949.3 183.7C950.3 183.9 951.9 183.4 952.3 182 952.7 180.6 951.7 178.8 950.7 178.6L938.2 175.2 947.1 170.1C947.7 169.8 948.3 169.4 948.4 169 948.6 168 948.3 167.5 948 166.9 947.3 165.7 945.9 165.3 944.7 166L931.3 173.3 914.6 168.7 945.1 151.7C945.7 151.3 945.9 150.9 946.1 149.9 946.2 149.5 946.4 149 946 148.4 945.4 147.2 943.5 146.7 942.3 147.4L907.7 166.8 897 163.9 890.9 140.8 898.6 132.5 938.8 133C939.8 132.8 941 132.1 941.3 131.2 941.4 130.7 941.4 130.7 940.9 130.6 941.3 129.2 940.2 127.9 938.7 128L903.9 127.9 916.2 115.4 931.6 115.6C932.7 115.4 933.4 114.6 933.6 113.7 933.6 113.7 933.8 113.2 933.8 113.2 934.1 111.8 933 110.5 931.5 110.6L921 110.7 929.9 101.7C930.5 101.4 930.6 100.9 930.8 100.5 931 99.5 930.8 98.5 930.3 98.4 929.2 97.1 927.7 97.1 926.5 97.8L917.6 106.8 917.8 96.9C917.7 95.4 916.6 94.1 915.1 94.2 914 94.4 912.7 95.5 912.9 96.6L912.7 112 900.4 124 900.5 89.2C900.4 87.7 899.2 86.9 897.8 86.5 896.7 86.7 895.4 87.8 895.5 89.3ZM865.2 136.3L883.3 141.2 886.1 142 886.8 144.7 891.5 162.4 892.1 165.5 890.1 167.5 877.1 180.3 875.1 182.3 872.3 181.5 854.2 176.6 851.5 175.8 850.7 173.1 846.1 155.5 845.3 152.8 847.5 150.4 860.4 137.5 862.5 135.5 865.2 136.3Z" fill="rgba(41, 46, 106, 1)"></path><path d="M383.4 429.4L339.8 413.1 322.9 375.4 364.1 379.6 393.2 415.8C393.2 415.8 393.6 416.1 393.6 416.1 394.6 416.8 396.1 416.5 397.2 415.9 398.7 414.9 398.7 412.9 397.4 411.9L371.8 380.3 391.8 382.3 403.3 396.1C403.3 396.1 403.7 396.4 403.7 396.4 404.6 397.1 406.2 396.8 407.3 396.3 408.7 395.2 408.8 393.2 407.4 392.2L399.9 382.6 414.6 384.2C415.8 384.4 417.6 383 417.8 381.7 418.3 380 416.5 378.7 415.3 378.5L400.6 376.9 410.2 369.3C411.6 368.3 411.7 366.3 410.3 365.3 409.3 363.8 407.3 363.8 406.3 365.1L392.5 376.6 372.8 374.1 404.4 348.6C405.9 347.5 405.9 345.5 404.6 344.5 403.5 343.1 401.5 343 400.5 344.4L364.3 373.5 323.1 369.3 347.7 335.3 393.8 327.8C395.4 327.6 396.4 326.2 396.1 324.6 395.9 323.1 394.5 322.1 393 322.4L352.3 328.9 364.1 312.6 381.3 309.8C382.9 309.5 383.9 308.2 383.6 306.6 383.4 305.1 382 304.1 380.4 304.3L368.7 306.2 377.9 293.5C379.3 292.5 378.6 290.6 377.3 289.6 375.9 288.6 374.3 288.9 373.3 290.2L364.8 302 362.9 290.3C362.7 288.7 361.3 287.7 359.8 288S357.2 289.6 357.5 291.2L360.2 308.4 348.4 324.7 341.9 284.1C341.6 282.5 340.3 281.5 338.7 281.8 337.1 282 336.1 283.4 336.4 284.9L343.8 331.1 319.6 364.7 302.6 326.9 318.7 284.6C319.2 282.9 318.2 281.5 316.8 280.5 315.1 280 313.7 281 312.7 282.3L298.4 320.4 290.2 302 296.7 285.3C297.3 283.6 296.2 282.2 294.9 281.2 293.2 280.7 291.8 281.7 291.1 282.6L286.9 294.1 280.8 280.7C280.2 279.6 278.4 278.3 276.9 279.3 275.5 280.3 274.5 281.7 275.5 283.1L281.7 296.6 270.2 292.4C268.5 291.9 267.1 292.9 266.4 293.8 266.2 295.1 266.5 296.6 267.4 297.3 267.4 297.3 267.8 297.6 267.8 297.6L284.5 304.1 292.7 322.5 254.7 308.1C253 307.6 251.6 308.7 250.9 309.6 250.7 310.8 251 312.4 251.9 313 251.9 313 252.3 313.3 252.3 313.3L295.9 329.6 312.8 367.4 271.6 363.2 242.5 327C241.5 325.5 239.4 325.4 238.5 326.8 237 327.8 236.9 329.9 238.3 330.8L263.9 362.4 243.9 360.4 232.4 346.6C231.4 345.2 229.4 345.1 228.4 346.5 227 347.5 226.9 349.5 228.2 350.5L235.8 360.1 221.1 358.5C219.9 358.3 218.1 359.8 217.9 361 217.7 362.2 218.3 363.4 219.2 364 219.6 364.3 220.1 364.7 220.9 364.5L235.6 366.2 226 373.7C224.5 374.8 224.5 376.8 225.8 377.8 225.8 377.8 226.3 378.1 226.3 378.1 227.2 378.8 228.7 378.5 229.9 377.9L243.7 366.5 263.6 368.5 232.1 394C230.6 395.1 230.5 397.1 231.9 398.1 231.9 398.1 232.4 398.4 232.4 398.4 233.3 399 234.8 398.8 235.9 398.2L272.2 369.1 313.3 373.3 289.1 406.9 242.9 414.3C241.4 414.6 240.4 415.9 240.7 417.5 240.9 419.1 242.3 420.1 243.8 419.8L284.2 413.7 272.4 430 255.2 432.8C253.6 433.1 252.6 434.4 252.9 436S254.5 438.5 256 438.3L267.8 436.4 259.2 448.2C258.3 449.6 258.5 451.1 259.9 452.1 261.2 453.1 262.8 452.8 263.8 451.5L272.3 439.7 274.2 451.4C274.3 452.2 274.4 453 275.4 453.6S277 454.2 277.8 454C279.4 453.8 280.4 452.4 280.1 450.8L277.3 433.6 289.2 417.3 295.7 458C295.8 458.7 296 459.5 296.9 460.2 297.3 460.5 298.6 460.7 299.3 460.6 300.9 460.3 301.9 459 301.6 457.4L294.2 411.3 318.5 377.7 335.4 415.5 319.1 459C318.9 460.2 319.2 461.8 320.1 462.5 320.1 462.5 320.6 462.8 320.6 462.8 322.2 463.3 323.7 462.3 324.3 461.4L338.7 423.4 346.8 441.7 340.3 458.4C340.1 459.6 340.3 461.2 341.3 461.8 341.3 461.8 341.7 462.2 341.7 462.2 343.4 462.7 344.8 461.7 345.5 460.8L349.7 449.3 355.8 462.7C356.3 463 356.4 463.8 356.9 464.1 357.8 464.8 359 465 360.1 464.4 361.6 463.4 362.5 462 361.5 460.6L355.3 447.1 366.8 451.3C368.5 451.8 370 450.8 370.6 449.9 371.1 448.2 370.1 446.8 369.2 446.1L352.5 439.6 344.3 421.2 382.3 435.6C384 436.1 385.5 435.1 386.1 434.2 385.7 431.8 385 429.9 383.4 429.4Z" fill="rgba(41, 46, 106, 1)"></path><path d="M729.2 413.3L739.4 406 740.5 414.4C740.6 415.3 741.5 416.1 742.7 416.2 743.8 415.8 744.7 414.9 744.6 414L743.4 402.9 752.9 396.2 755.2 418.7C755.5 420.1 756.4 421 757.4 420.6 758.7 420.7 759.6 419.8 759.3 418.3L756.8 393.6 765.3 387.3 787.5 397.2 788.7 406.5 767 421.8C766.8 422.1 766.7 422.5 766.5 422.9 766.3 423.2 766.4 424.1 766.6 424.6 767.4 425.9 768.6 426 769.5 425L789.3 411.1 790.3 422.5 780.4 429.9C780.1 429.8 779.9 430.1 779.7 430.5 779.4 431.2 779.5 432.1 780 432.8 780.6 433.5 781.9 433.6 782.9 433.2L790.9 427.1 792.4 441.4C792.5 442.3 793.4 443.1 794.6 443.2 795.7 442.8 796.6 441.9 796.5 441L795 427.7 802.7 431.1C803.8 431.6 805 430.8 805.3 430.1 805.8 429 805.6 427.5 804.5 427L794.6 422.7 793.6 411.2 814 420.3C815.1 420.8 816.2 420.4 816.7 419.3 817.2 418.2 816.7 417.2 815.6 416.7L793 406.6 791.7 396.8 811.6 382.5 820 386.2 822.8 411.5C822.6 412.8 823.9 413.8 825 413.4 826.2 413.5 826.7 412.4 826.9 411.2L824.4 388.2 835 392.9 836 404.3C836.1 405.2 837.4 406.2 838.3 406.2S840.2 404.8 840.3 403.6L839.4 394.9 852.2 400.5C853.3 401 854.5 400.3 855 399.2 855.3 398.4 855.1 397 854 396.5L841.2 390.8 848.4 385.3C849.1 384.7 849.6 383.6 848.8 382.4 848.3 381.7 846.6 381.5 846 382L836.8 388.9 826.2 384.2 844.9 370.6C845.8 369.7 846.2 368.6 845.5 367.4 844.9 366.7 843.3 366.4 842.6 367L821.8 382.2 813.4 378.5 810.7 354.1 818.8 348.5 841.5 358.6C842.6 359.1 843.6 358.7 844.1 357.6 844.6 356.5 844.4 355.1 843.3 354.6L822.8 345.5 832 338.6 841.9 343C843 343.5 844 343.1 844.5 342 845 340.9 844.6 339.8 843.5 339.3L835.8 335.9 846.7 328.1C847.4 327.5 847.7 325.9 847.2 325.2 846.2 324.3 845.1 323.9 844.3 324.8L832.8 332.8 831.8 323.2C831.4 322.2 830.5 321.3 829.6 321.3 828.7 321.4 828 321.9 827.7 322.7 827.7 322.7 827.5 323 827.7 323.6L828.8 335.9 819.7 342.7 816.8 318.7C816.9 317.4 816 316.6 814.5 316.8 814 317 813.5 317.2 813.2 318 813 318.3 812.8 318.7 812.7 319.1L815.8 345.4 808.2 350.8 785.9 340.9 784.9 330.3 805 315.6C806.2 314.9 806.3 313.6 805.4 312.8 805 311.7 803.7 311.6 802.5 312.4L784.3 325.7 782.9 314.1 791.9 307.6C792.6 307.1 792.7 305.8 792.3 304.8 791.4 303.9 790.3 303.4 789.4 304.3L782.5 309.1 781 296.7C781.2 295.4 780.1 294.9 778.8 294.8 778.3 295 777.6 295.6 777.3 296.3 777.3 296.3 777.1 296.7 776.9 297L778.4 310.4 769.3 306.3C768.6 306 767.1 306.3 766.7 307.3 766.2 308.4 766.9 309.7 767.7 310L779 315 780.4 326.6 758.1 316.7C757 316.2 755.8 317 755.3 318.1S755.2 320.2 756.3 320.7L780.8 331.6 781.8 341.2 761.9 355.6 752.4 351.3 749.8 325.7C749.4 324.6 748.4 323.7 747.2 323.6 746.6 323.8 745.9 324.4 745.6 325.1 745.5 325.5 745.3 325.9 745.5 326.4L748 349.4 737.4 344.7 735.9 333.1C735.9 332.2 735 331.3 733.7 331.2 732.7 331.6 731.8 332.6 731.8 333.5L733 342.7 721.3 337.5C720.6 337.2 719 337.8 718.6 338.5 718.2 339.6 718.8 341.2 719.5 341.5L731.2 346.7 723.7 351.7C723.6 352.1 723.4 352.5 723.2 352.8 722.9 353.6 722.9 354.4 723.1 355 724.1 355.8 725.3 355.9 726.4 355.5L735.6 348.7 746.2 353.4 727.5 367C726.2 367.7 726.1 369 726.7 369.7 727.4 370.9 728.7 371 729.8 370.6L750.6 355.3 760.1 359.6 762.8 384 755 389.7 730.5 378.8C729.4 378.3 728.3 378.7 727.9 379.8 727.4 380.9 727.8 382 728.9 382.5L751.2 392.4 741.6 399.1 730.3 394C729.6 393.7 728 394.3 727.5 395.4 727 396.5 727.8 397.7 728.5 398.1L737.6 402.1 726.7 410C726.5 410.3 726.5 410.3 726.4 410.7 726.1 411.4 726.1 412.3 726.3 412.8 727.2 413.7 728.5 413.8 729.2 413.3ZM764.5 361.5L764.3 358.8 766.2 357.5 782.4 345.9 784.3 344.5 786.5 345.5 804.4 353.5 806.6 354.4 806.9 356.7 809 376.5 809.3 378.8 807.2 380.5 791.2 391.8 789.2 393.5 787 392.6 769.1 384.6 766.9 383.6 766.8 380.9 764.5 361.5Z" fill="rgba(46, 54, 140, 1)"></path><path d="M214.8 68.5L208.4 76.2 205.9 70C205.6 69.3 204.7 68.8 203.7 69 203 69.5 202.5 70.4 202.8 71.1L206 79.4 200 86.6 193.6 69.7C193.1 68.7 192.2 68.2 191.5 68.7 190.5 68.9 190 69.8 190.5 70.8L197.6 89.4 192.4 96.1 173.1 93.1 170.3 86.2 183.9 69.8C183.9 69.5 184 69.2 184 68.9 184.1 68.5 183.8 67.9 183.6 67.5 182.7 66.7 181.7 66.9 181.3 67.8L168.9 82.7 165.7 74.1 171.8 66.3C172.1 66.4 172.1 66 172.2 65.7 172.3 65.1 172.1 64.4 171.5 64 170.9 63.6 169.9 63.7 169.2 64.3L164.3 70.6 160.1 60C159.9 59.3 159 58.8 158 59 157.3 59.5 156.8 60.4 157 61.1L161 71.1 154.3 70.1C153.4 69.9 152.6 70.8 152.5 71.4 152.4 72.3 152.9 73.4 153.8 73.5L162.3 74.9 165.5 83.5 147.8 80.7C146.9 80.6 146.2 81.1 146 82 145.9 83 146.4 83.7 147.3 83.9L166.9 86.9 170 94.2 157.6 109.4 150.3 108.3 142.9 89.3C142.8 88.3 141.5 87.8 140.8 88.4 139.8 88.5 139.7 89.5 139.8 90.5L146.5 107.7 137.4 106.3 134.2 97.7C134 97 132.7 96.5 132.1 96.7S130.9 98.1 131 99.1L133.6 105.7 122.5 104C121.6 103.8 120.8 104.7 120.6 105.6 120.5 106.3 121 107.3 122 107.4L133 109.2 128.6 115C128.2 115.5 128 116.5 128.9 117.3 129.4 117.7 130.8 117.6 131.2 117L136.8 109.8 146 111.2 134.4 125.6C133.9 126.5 133.8 127.4 134.6 128.2 135.2 128.6 136.5 128.5 136.9 127.9L149.8 111.8 157.1 112.9 164.3 131.2 159.1 137.2 139.5 134.1C138.6 134 137.8 134.5 137.7 135.5 137.5 136.4 138 137.5 139 137.6L156.7 140.4 151 147.6 142.5 146.3C141.5 146.1 140.8 146.7 140.7 147.6 140.5 148.6 141 149.3 142 149.4L148.6 150.5 141.8 158.8C141.4 159.4 141.5 160.7 142.1 161.1 143 161.6 144 161.7 144.4 160.8L151.6 152.2 154.4 159.5C154.9 160.2 155.8 160.6 156.5 160.4 157.2 160.2 157.6 159.6 157.7 159 157.7 159 157.7 158.7 157.4 158.3L154 149 159.7 141.8 166.9 159.8C167.1 160.8 168 161.3 169.1 160.8 169.4 160.5 169.8 160.2 169.9 159.6 169.9 159.3 170 159 170 158.7L162.1 139 166.9 133.2 186.1 136.2 189.1 144.1 176.7 159.7C175.9 160.5 176.1 161.5 177 162 177.5 162.7 178.5 162.6 179.3 161.7L190.5 147.6 194 156.2 188.4 163.1C188 163.7 188.2 164.7 188.7 165.4 189.6 165.9 190.6 166.1 191 165.2L195.4 160 199.1 169.3C199.3 170.3 200.2 170.5 201.2 170.3 201.6 170 202 169.5 202.1 168.8 202.1 168.8 202.2 168.5 202.2 168.2L198.3 158.2 206.2 159.4C206.8 159.5 207.9 159 208 158.1 208.2 157.1 207.3 156.4 206.7 156.3L196.9 154.7 193.4 146.1 212.6 149.1C213.6 149.2 214.4 148.4 214.5 147.4S214.1 145.8 213.2 145.6L192 142.3 189.2 135.1 201.7 119.9 209.9 121.1 217.2 140.4C217.8 141.1 218.7 141.6 219.7 141.4 220 141.2 220.4 140.6 220.5 140 220.6 139.6 220.6 139.3 220.4 139L213.7 121.7 222.8 123.2 226.3 131.8C226.6 132.5 227.5 132.9 228.5 132.8 229.2 132.2 229.7 131.3 229.4 130.7L226.6 123.7 236.7 125.3C237.4 125.4 238.5 124.6 238.6 124 238.7 123 237.9 121.9 237.3 121.8L227.2 120.3 231.9 114.9C232 114.5 232 114.2 232.1 113.9 232.1 113.3 231.9 112.6 231.7 112.2 230.8 111.8 229.8 111.9 229 112.5L223.4 119.7 214.2 118.2 225.8 103.9C226.6 103 226.5 102 225.9 101.6 225 100.8 224 101 223.3 101.5L210.4 117.7 202.2 116.4 195 98.1 199.8 92 221 95.3C222 95.5 222.7 95 222.8 94 223 93.1 222.5 92.3 221.5 92.2L202.2 89.2 208.2 82 218 83.5C218.6 83.6 219.7 82.8 219.9 81.9 220 80.9 219.2 80.2 218.5 80.1L210.6 78.8 217.4 70.5C217.5 70.2 217.5 70.2 217.5 69.9 217.6 69.2 217.4 68.5 217.1 68.2 216.2 67.7 215.2 67.9 214.8 68.5ZM198.4 115.8L199.1 117.8 197.9 119.3 187.8 131.6 186.6 133.1 184.7 132.8 169.3 130.4 167.4 130.1 166.7 128.3 160.9 113.5 160.2 111.8 161.4 110 171.4 98 172.6 96.2 174.5 96.5 190 98.9 191.9 99.2 192.6 101.3 198.4 115.8Z" fill="rgba(46, 54, 140, 1)"></path><path d="M64 522.8L69.1 514.2 72.6 520C72.9 520.6 73.9 520.9 74.9 520.6 75.5 520 75.8 519 75.5 518.4L71.1 510.7 75.9 502.7 84.8 518.4C85.4 519.4 86.4 519.7 87 519.1 88 518.8 88.3 517.8 87.7 516.8L77.8 499.5 82 492.2 101.5 492.3 105.3 498.7 94.4 516.9C94.4 517.2 94.4 517.5 94.4 517.8 94.4 518.1 94.7 518.8 95 519.1 96 519.8 96.9 519.4 97.3 518.5L107.3 501.9 111.7 509.9 106.9 518.5C106.5 518.5 106.5 518.8 106.5 519.2 106.5 519.8 106.9 520.4 107.5 520.8 108.1 521.1 109.1 520.8 109.7 520.1L113.6 513.1 119.3 523C119.6 523.7 120.6 524 121.6 523.7 122.2 523.1 122.5 522.1 122.2 521.5L116.8 512.2 123.5 512.2C124.5 512.2 125.1 511.2 125.1 510.6 125.1 509.6 124.5 508.7 123.5 508.7L114.9 508.6 110.5 500.6 128.4 500.7C129.3 500.7 130 500.1 130 499.1 130 498.1 129.3 497.5 128.4 497.5L108.5 497.4 104.4 490.7 114.4 473.7 121.8 473.8 131.9 491.4C132.3 492.4 133.5 492.7 134.2 492.1 135.1 491.8 135.1 490.8 134.8 489.8L125.6 473.8 134.9 473.8 139.3 481.9C139.7 482.5 140.9 482.8 141.6 482.5S142.5 480.9 142.2 479.9L138.7 473.8 149.9 473.9C150.9 473.9 151.5 472.9 151.5 472 151.5 471.3 150.9 470.4 149.9 470.4L138.7 470.3 142.3 463.9C142.6 463.3 142.6 462.3 141.7 461.7 141 461.4 139.7 461.7 139.4 462.3L134.9 470.3 125.6 470.3 135 454.3C135.3 453.4 135.3 452.4 134.3 451.8 133.7 451.4 132.4 451.7 132.1 452.4L121.8 470.3 114.4 470.2 104.6 453.2 108.8 446.5 128.6 446.6C129.6 446.6 130.2 446 130.2 445 130.2 444.1 129.6 443.1 128.6 443.1L110.7 443 115.2 435 123.9 435.1C124.8 435.1 125.5 434.4 125.5 433.5 125.5 432.5 124.8 431.9 123.9 431.9L117.1 431.8 122.6 422.6C122.9 421.9 122.6 420.7 122 420.3 121 420 120.1 420 119.7 421L113.9 430.5 110.1 423.8C109.5 423.2 108.5 422.8 107.9 423.2 107.3 423.5 106.9 424.1 106.9 424.8 106.9 424.8 106.9 425.1 107.3 425.4L112 434.1 107.5 442 97.7 425.4C97.3 424.4 96.4 424.1 95.4 424.7 95.1 425 94.8 425.3 94.8 426 94.8 426.3 94.8 426.6 94.8 426.9L105.6 445.2 101.7 451.6 82.2 451.5 78.1 444.2 88 426.9C88.7 426 88.4 425 87.4 424.7 86.8 424 85.8 424.3 85.2 425.3L76.1 440.9 71.4 432.9 75.9 425.3C76.2 424.6 75.9 423.7 75.3 423 74.3 422.7 73.3 422.7 73 423.7L69.5 429.4 64.4 420.7C64.1 419.8 63.1 419.8 62.2 420.1 61.8 420.4 61.5 421 61.5 421.7 61.5 421.7 61.5 422 61.5 422.3L66.9 431.6 58.9 431.6C58.3 431.6 57.3 432.2 57.3 433.2 57.3 434.1 58.3 434.8 58.9 434.8L68.8 434.8 73.6 442.9 54.1 442.8C53.1 442.8 52.5 443.7 52.4 444.7S53.1 446.3 54 446.3L75.5 446.4 79.3 453.1 69.3 470 61 470 50.8 452C50.2 451.4 49.2 451.1 48.3 451.4 47.9 451.7 47.6 452.3 47.6 453 47.6 453.3 47.6 453.6 47.9 453.9L57.1 470 47.9 469.9 43.1 461.9C42.8 461.3 41.8 461 40.9 461.3 40.2 461.9 39.9 462.9 40.2 463.5L44 469.9 33.8 469.9C33.1 469.9 32.2 470.8 32.2 471.5 32.2 472.4 33.1 473.4 33.8 473.4L44 473.5 40.1 479.5C40.1 479.8 40.1 480.2 40.1 480.5 40.1 481.1 40.5 481.8 40.8 482.1 41.7 482.4 42.7 482.1 43.3 481.5L47.8 473.5 57.1 473.5 47.8 489.5C47.1 490.4 47.5 491.4 48.1 491.7 49 492.4 50 492 50.7 491.4L61 473.5 69.3 473.6 79.1 490.6 75.3 497.3 53.8 497.2C52.9 497.2 52.2 497.8 52.2 498.8 52.2 499.7 52.9 500.4 53.8 500.4L73.3 500.5 68.5 508.4 58.6 508.4C57.9 508.4 57 509.3 57 510.3 57 511.3 57.9 511.9 58.6 511.9L66.6 511.9 61.1 521.2C61.1 521.5 61.1 521.5 61.1 521.8 61.1 522.5 61.4 523.1 61.7 523.4 62.7 523.8 63.6 523.5 64 522.8ZM73.1 473.6L72.2 471.7 73.1 470.1 81.2 456.3 82.2 454.7 84.1 454.7 99.8 454.8 101.7 454.8 102.6 456.4 110.6 470.2 111.5 471.8 110.6 473.7 102.5 487.1 101.5 489.1 99.6 489 83.9 489 82 489 81.1 487 73.1 473.6Z" fill="rgba(54, 57, 88, 1)"></path></g><defs><mask id="SvgjsMask1024"><rect width="1440" height="560" fill="#ffffff"></rect></mask><filter id="SvgjsFilter1025"><feGaussianBlur stdDeviation="1"></feGaussianBlur></filter></defs></svg>