<svg xmlns="http://www.w3.org/2000/svg" version="1.1" xmlns:xlink="http://www.w3.org/1999/xlink" xmlns:svgjs="http://svgjs.dev/svgjs" width="1440" height="560" preserveAspectRatio="none" viewBox="0 0 1440 560"><g mask="url(&quot;#SvgjsMask1036&quot;)" fill="none"><rect width="1440" height="560" x="0" y="0" fill="rgba(238, 246, 255, 1)"></rect><circle r="7.895" cx="598.245" cy="399.555" filter="url(#SvgjsFilter1037)" fill="rgba(194, 198, 240, 1)"></circle><circle r="4.73" cx="4.99" cy="226.41" filter="url(#SvgjsFilter1037)" fill="rgba(194, 198, 240, 1)"></circle><circle r="8.965" cx="153.695" cy="319.525" filter="url(#SvgjsFilter1037)" fill="rgba(230, 232, 255, 1)"></circle><circle r="5.78" cx="931.06" cy="127.41" filter="url(#SvgjsFilter1037)" fill="rgba(195, 198, 229, 1)"></circle><circle r="8.425" cx="1287.155" cy="507.58500000000004" filter="url(#SvgjsFilter1037)" fill="rgba(195, 198, 229, 1)"></circle><circle r="8.815" cx="892.2550000000001" cy="548.595" filter="url(#SvgjsFilter1037)" fill="rgba(230, 232, 255, 1)"></circle><circle r="4.82" cx="502.68" cy="14.57" filter="url(#SvgjsFilter1037)" fill="rgba(230, 232, 255, 1)"></circle><circle r="8.775" cx="148.005" cy="295.215" filter="url(#SvgjsFilter1037)" fill="rgba(194, 198, 240, 1)"></circle><circle r="4.93" cx="1144.46" cy="275.16" filter="url(#SvgjsFilter1037)" fill="rgba(194, 198, 240, 1)"></circle><circle r="5.98" cx="1155.47" cy="136.23999999999998" filter="url(#SvgjsFilter1037)" fill="rgba(195, 198, 229, 1)"></circle><circle r="8.59" cx="867.85" cy="470.35999999999996" filter="url(#SvgjsFilter1037)" fill="rgba(230, 232, 255, 1)"></circle><circle r="6.61" cx="316.71000000000004" cy="143.86" filter="url(#SvgjsFilter1037)" fill="rgba(230, 232, 255, 1)"></circle><circle r="8.205" cx="162.56500000000003" cy="12.465" filter="url(#SvgjsFilter1037)" fill="rgba(230, 232, 255, 1)"></circle><circle r="7.415" cx="612.5749999999999" cy="378.14500000000004" filter="url(#SvgjsFilter1037)" fill="rgba(230, 232, 255, 1)"></circle><circle r="7.5" cx="310.62" cy="135.57" filter="url(#SvgjsFilter1037)" fill="rgba(230, 232, 255, 1)"></circle><circle r="7.065" cx="964.5450000000001" cy="61.724999999999994" filter="url(#SvgjsFilter1037)" fill="rgba(195, 198, 229, 1)"></circle><circle r="8.765" cx="1269.105" cy="349.59499999999997" filter="url(#SvgjsFilter1037)" fill="rgba(194, 198, 240, 1)"></circle><circle r="7.225" cx="755.525" cy="489.13500000000005" filter="url(#SvgjsFilter1037)" fill="rgba(195, 198, 229, 1)"></circle><circle r="5.09" cx="690.58" cy="280.59999999999997" filter="url(#SvgjsFilter1037)" fill="rgba(194, 198, 240, 1)"></circle><circle r="4.97" cx="141.58" cy="181.29" filter="url(#SvgjsFilter1037)" fill="rgba(195, 198, 229, 1)"></circle><path d="M1296.4 416.6L1304.5 469.1 1276.3 507.1 1257.5 463.7 1277.4 414.4C1277.4 414.4 1277.4 413.8 1277.4 413.8 1277.6 412.5 1276.4 411.1 1275.3 410.3 1273.4 409.4 1271.4 410.5 1271.1 412.4L1253.9 455.5 1244.8 434.5 1252.1 415.4C1252.1 415.4 1252.2 414.7 1252.2 414.7 1252.3 413.4 1251.2 412 1250 411.2 1248.2 410.4 1246.1 411.4 1245.9 413.3L1240.5 426.3 1234 410.7C1233.5 409.3 1231 408.4 1229.7 408.9 1227.7 409.3 1227.4 411.8 1227.9 413.2L1234.5 428.8 1221.5 423.4C1219.7 422.6 1217.7 423.6 1217.4 425.5 1216.6 427.3 1217.6 429.4 1219.5 429.6L1238.7 437 1247.2 457.9 1204.1 440.7C1202.2 439.9 1200.2 440.9 1200 442.8 1199.1 444.7 1200.2 446.7 1202.1 446.9L1251.3 466.8 1270.1 510.2 1222.5 504.7 1189.3 462.8C1188.2 461.4 1186.3 461.2 1184.8 462.3 1183.4 463.5 1183.2 465.4 1184.3 466.8L1213.6 503.7 1190.7 501 1178.3 485.4C1177.2 484 1175.3 483.8 1173.8 484.9 1172.4 486 1172.2 487.9 1173.3 489.3L1181.8 500 1164 497.9C1162.1 497.1 1160.6 498.8 1160.4 500.7 1160.2 502.6 1161.3 504.1 1163.2 504.3L1179.8 506.2 1169.1 514.6C1167.7 515.8 1167.5 517.7 1168.6 519.1S1171.6 520.7 1173.1 519.6L1188.7 507.2 1211.5 509.9 1174.7 539.1C1173.2 540.2 1173 542.1 1174.1 543.6 1175.3 545 1177.2 545.2 1178.6 544.1L1220.4 510.9 1267.5 516.4 1239.3 554.3 1188.1 561.9C1186.1 562.3 1185.3 564.2 1185.1 566.1 1185.5 568.1 1187.3 568.9 1189.2 569.1L1235.1 562.2 1221.4 580.6 1201.1 583.4C1199.1 583.8 1198.3 585.7 1198 587.6 1198.5 589.5 1200.3 590.4 1201.6 590.5L1215.4 588.3 1205.4 601.9C1204.6 603.1 1204.3 605.7 1206.2 606.5 1208 607.4 1209.9 607.6 1210.8 605.8L1220.7 592.1 1223 605.9C1223.4 607.9 1225.2 608.7 1226.5 608.9 1227.8 608.4 1229.3 607.3 1229.4 606 1229.4 606 1229.5 605.4 1229.5 605.4L1226.7 585.1 1240.4 566.7 1247.3 612.6C1247.8 614.6 1249.6 615.4 1250.9 615.6 1252.2 615.1 1253.6 614 1253.8 612.7 1253.8 612.7 1253.8 612.1 1253.8 612.1L1245.7 559.6 1274 521.6 1292.8 565 1272.9 614.3C1272.1 616.1 1273.1 618.2 1275 618.4 1276.8 619.2 1278.9 618.2 1279.1 616.3L1296.4 573.2 1305.5 594.2 1298.1 613.3C1297.3 615.2 1298.3 617.2 1300.3 617.4 1302.1 618.3 1304.1 617.2 1304.4 615.3L1309.7 602.4 1316.3 618C1316.8 619.3 1319.2 620.3 1320.6 619.8 1321.9 619.3 1322.7 618.1 1322.9 616.8 1322.9 616.2 1323 615.5 1322.5 614.8L1315.9 599.3 1328.8 604.6C1330.6 605.5 1332.7 604.4 1332.9 602.5 1332.9 602.5 1333 601.9 1333 601.9 1333.1 600.6 1332 599.2 1330.8 598.4L1311.7 591 1302.5 570 1345.6 587.2C1347.5 588.1 1349.5 587 1349.7 585.1 1349.7 585.1 1349.8 584.5 1349.8 584.5 1349.9 583.2 1348.8 581.8 1347.6 581L1298.4 561.2 1279.6 517.7 1326.6 523.2 1359.8 565C1360.9 566.5 1362.8 566.7 1364.2 565.6 1365.7 564.4 1365.9 562.5 1364.8 561.1L1336.2 524.3 1359 526.9 1371.4 542.5C1372.5 544 1374.4 544.2 1375.9 543.1S1377.5 540 1376.4 538.6L1367.9 528 1384.5 529.9C1386.4 530.1 1387.8 529 1388 527.1 1388.2 525.2 1387.1 523.7 1385.2 523.5L1368.7 521.6 1379.3 513.2C1380 512.6 1380.7 512.1 1380.9 510.8S1380.5 508.8 1379.9 508.1C1378.8 506.7 1376.9 506.5 1375.5 507.6L1359.8 519.9 1337 517.3 1373.8 488.1C1374.6 487.5 1375.3 486.9 1375.4 485.7 1375.5 485 1375 483.7 1374.4 483 1373.3 481.6 1371.4 481.3 1370 482.5L1328.1 515.6 1281.1 510.2 1309.3 472.2 1361.8 464.1C1363.1 463.6 1364.6 462.5 1364.7 461.2 1364.7 461.2 1364.8 460.6 1364.8 460.6 1364.4 458.6 1362.5 457.8 1361.3 457.6L1315.4 464.5 1329.1 446.2 1349.4 443.4C1350.7 442.9 1352.1 441.7 1352.3 440.5 1352.3 440.5 1352.4 439.8 1352.4 439.8 1352 437.9 1350.1 437 1348.8 436.9L1335.1 439.1 1345 425.5C1345.1 424.8 1345.8 424.3 1345.9 423.6 1346 422.4 1345.5 421 1344.3 420.2 1342.5 419.4 1340.6 419.1 1339.7 421L1329.8 434.6 1327.5 420.9C1327.1 418.9 1325.3 418 1324 417.9 1322 418.3 1321.1 420.1 1321 421.4L1323.8 441.7 1310.1 460.1 1303.2 414.2C1302.7 412.2 1300.9 411.3 1299.6 411.2 1297.5 412.9 1296 414.6 1296.4 416.6Z" fill="rgba(195, 198, 229, 1)"></path><path d="M1080.3 284.6L1032.3 302.1 1015.5 293.8 1031.8 288C1033.7 287.8 1034.1 285.9 1034 284 1033.2 282.7 1031.2 281.6 1030 282.4L1007.5 290 990.8 282.4 1006 272.2 1029.5 276.6C1029.5 276.6 1030.2 276.6 1030.2 276.6 1031.4 276.5 1032.6 275.1 1033.1 273.8 1033 271.8 1032.2 270.6 1030.3 270.1L1013.3 267.1 1028.5 256.8 1078.7 265.5C1078.7 265.5 1079.4 266.1 1079.4 266.1 1080.7 266 1081.8 264.6 1082.4 263.3 1082.8 261.3 1081.4 259.5 1079.5 259.7L1035.8 251.7 1054 238.6 1073.6 242.2C1073.6 242.2 1073.6 242.2 1074.2 242.1 1075.5 242 1076.7 241.3 1077.2 239.9 1077.1 238 1076.3 236.2 1074.3 235.7L1061.3 233.5 1074.6 224.1C1076.5 223.3 1076.3 221.4 1075.6 220.2 1074.8 218.3 1072.8 217.8 1071 219.3L1057.6 228.1 1060.4 215.6C1060.3 213.7 1059.5 211.9 1057.6 212 1055.6 211.5 1054.4 212.3 1053.9 214.2L1050.4 233.8 1032.1 246.2 1040 201.9C1040.6 200.6 1039.1 198.8 1037.2 198.3 1035.9 198.4 1034 199.2 1033.6 201.2L1024.9 251.3 1009.7 261.6 1012.8 244.6C1013.2 242.7 1011.8 241.5 1009.9 241 1008.6 240.5 1006.7 241.9 1006.2 243.2L1002.4 266.7 987.2 277.6 985.7 259.1 1000.9 241.1C1002.1 239.7 1001.9 237.8 1000.5 236.6 999.8 235.4 997.2 235.6 996.1 237L984.9 250.1 983.4 231.6 1016.8 192.9C1018 191.5 1017.8 189.6 1016.5 188.4 1015.1 187.3 1013.2 187.4 1012 188.8L982.7 222.7 980.9 201 993.8 185.8C994.9 184.4 994.8 182.5 993.4 181.4 992 180.2 990.1 180.4 988.9 181.7L980.1 191.5 978.8 175.5C978.6 173.6 977.2 172.4 975.3 172.6 973.4 172.7 972.2 174.1 972.4 176L973.7 192 964 183.8C962.7 182.6 960.8 182.8 959.6 184.2S958.6 187.5 960 188.6L974.5 200.9 976.3 223.2 942.5 194.6C941.1 193.4 939.2 193.6 938 194.9 936.8 196.3 937 198.2 938.4 199.4L977 232.2 978.6 250.7 965.5 239.5C964.1 238.4 962.2 238.5 961 239.9 959.8 241.3 960 243.2 961.4 244.4L979.3 259.6 980.8 277.5 964.7 269.8 956.5 247.4C955.7 246.1 953.7 245 952.5 245.8 950.6 246.6 950.1 247.9 950.2 249.8L956.1 266 940 258.3 922.6 210.3C921.8 208.5 920.5 208 918.5 208.1 916.7 208.9 916.2 210.9 916.3 212.1L931.4 254.6 911.3 244.7 904.7 226.6C904.5 224.7 902.5 224.2 900.6 224.4 899.4 225.1 898.3 227.1 899.1 229L903.3 240.8 888.6 234.3C887.2 233.2 885.4 234 884.2 236 883.7 237.3 884.5 239.2 885.8 239.7L900.6 246.8 888.1 251.1C886.2 251.9 885.7 253.9 886.5 255.1 886.6 257 887.9 257.5 889.2 257.4 889.9 257.4 889.9 257.4 890.5 257.3L908.6 250.7 928.7 260.6 886.9 275.6C885 275.7 884.5 277.7 884.6 279.6 885.4 280.9 886.7 281.4 888 281.3 888.6 281.2 888.6 281.2 888.6 281.2L937.3 264.4 953.4 272 937.2 277.9C935.3 278.6 934.8 280 934.9 281.9 935.7 283.1 937 284.3 938.3 284.2 939 284.1 939 284.1 939.6 284.1L962 275.8 978.1 283.5 963.5 293.7 940.1 289.8C938.1 289.3 936.3 290.8 935.8 292.1 935.9 294 936.7 295.9 938.6 295.7L955.6 298.8 941.1 309.6 890.2 300.4C888.9 299.8 887.1 301.3 886.5 302.6 886.7 304.5 887.5 306.4 889.5 306.8L933.1 314.8 914.9 327.2 896 323.6C894 323.2 892.2 324.6 892.4 326.5 891.8 327.8 892.6 329.7 894.6 330.2L907.6 332.3 894.3 341.8C893.1 342.5 892.6 344.5 893.4 346.3 894.1 346.9 895.4 347.5 896.7 347.3 896.7 347.3 897.3 347.3 897.9 347.2L911.3 337.8 909.2 350.8C908.6 352.1 910.1 353.9 911.4 354.5 912 354.4 912 354.4 912 354.4 913.9 354.3 915.1 352.9 915 351.6L918.6 332.7 936.8 319.6 928.9 363.9C929 365.9 929.8 367.1 931.7 367.6 931.7 367.6 932.4 367.5 932.4 367.5 933.6 367.4 934.9 366.7 935.3 364.7L944.7 314.5 959.2 304.3 956.2 321.2C956.3 323.1 957.1 325 959 324.8 959.1 325.5 959.7 325.4 959.7 325.4 961 325.3 962.2 323.9 962.7 322.6L966.5 299.2 981.7 288.9 983.2 306.8 968 324.7C966.8 326.1 967 328.7 968.4 329.9 969.8 330.4 971.7 330.2 972.9 329.5L984 315.7 985.5 334.2 952.7 372.9C951.6 374.3 951.7 376.2 953.1 377.4 954.5 378.5 956.4 378.4 957.6 377L986.2 343.1 988.1 365.5 975.8 380C974.6 381.4 974.8 383.3 976.2 384.4S979.4 385.5 980.6 384.1L988.8 374.4 990.1 390.3C990.3 392.3 991.7 393.4 993.6 393.3 995.5 393.1 996.7 391.7 996.5 389.8L995.2 373.9 1005.5 382C1006.2 382.6 1006.9 383.2 1007.5 383.1 1008.2 383.1 1009.4 382.3 1010 381.6 1011.1 380.3 1011 378.3 1009.6 377.2L994.4 364.9 992.6 342.6 1027.1 371.2C1027.8 371.8 1028.5 372.4 1029.1 372.4 1029.7 372.3 1031 371.6 1031.5 370.9 1032.7 369.5 1032.6 367.6 1031.2 366.4L991.9 333.7 990.3 315.2 1003.5 326.9C1004.2 327.5 1005.5 327.4 1006.1 327.4 1006.7 327.3 1007.4 327.3 1008 326.6 1009.1 325.2 1008.9 322.6 1007.6 322.1L989.6 306.3 988.1 288.4 1004.8 296 1012.4 318.5C1013.2 319.7 1014.6 320.9 1015.8 320.8 1016.5 320.7 1016.5 320.7 1016.4 320.1 1018.3 319.9 1019.5 317.9 1018.7 316.1L1012.8 299.8 1029.5 307.5 1046.4 356.2C1047.1 357.4 1048.5 357.9 1049.7 357.8 1050.4 357.7 1050.4 357.7 1050.4 357.7 1052.2 357 1053.4 355.6 1052.6 353.7L1037.5 311.3 1057.6 321.2 1064.2 339.3C1065 341.1 1066.4 341.7 1067.6 341.5 1067.6 341.5 1068.3 341.5 1068.3 341.5 1070.1 340.7 1070.6 338.7 1070.5 337.5L1065.6 325 1080.4 332.1C1081 332.1 1081.6 332 1082.3 332 1082.9 331.9 1084.1 331.2 1084.7 330.5 1085.2 328.5 1085 326.6 1083.1 326.1L1068.4 319 1080.8 314.8C1082.7 314 1083.2 312 1083.1 310.7 1082.3 308.9 1080.3 308.4 1078.4 308.5L1060.3 315.2 1040.3 305.9 1082.1 290.9C1083.9 290.1 1085.1 288.1 1084.3 286.9 1083.5 285 1082.1 283.8 1080.3 284.6Z" fill="rgba(194, 198, 240, 1)"></path><path d="M341.8 146.1L353.2 165.4 339.8 166.1C338.3 166.1 336.8 167.5 336.5 169.4 337 171.2 338.4 172.7 340.1 172.1L357 171.8 366.6 186.4 331.4 187C329.6 187.6 328.2 188.9 328.1 190.4 328.3 192.7 329.7 194.1 331.4 193.6L370.4 192.8 384.3 215.6 353.7 212.9 372.8 237 346.1 237.9 325.4 204.9C325.7 204.3 325.1 204 324.5 203.7 323.4 203.1 322 203.1 320.8 203.9 319.6 204.7 319.3 206.7 319.8 208.4L338.6 238.2 321.2 238.3 312.2 223.9C311.9 223.1 311.3 222.8 310.8 222.5 310.2 222.2 308.8 222.1 307.6 222.9 306.4 223.8 306.1 225.8 306.9 226.9L313.7 238.6 291.3 239.6C289.4 239.3 288.4 241 288.1 243 288 244.4 289.4 245.9 291.7 245.6L313.8 245.2 307.4 257C306.5 258.7 307.6 260.7 308.7 261.4 310.4 262.3 312.1 261.7 313 260.1L321.2 244.9 338.7 244.8 322.3 275.2C321.4 276.9 321.9 278.7 323.6 279.6 324.7 280.2 327 280 327.9 278.3L346.2 244.5 372.8 243.6 355.7 268.6 385.6 264.3 372.9 288 334.5 289.1C332.2 289.3 331.3 291 331.2 292.4 331.2 293.8 332.6 295.3 334.5 295.7L369.5 294.2 361.3 309.4 344.1 310.3C342.1 309.9 340.6 311.3 340.9 313.6 340.8 315 342.2 316.5 344.5 316.3L357.7 316.2 347 335.9C346.1 337.6 346.6 339.3 348.3 340.2S351.8 340.6 352.7 338.9L363.3 319.2 370.4 330.3C371.5 332.3 373.5 332.7 374.6 331.9 376.7 330.8 377 328.8 375.6 327.3L367 312.4 375.2 297.2 393.1 327.3C394.5 328.8 396.5 329.1 397.7 328.3 399.7 327.2 400.1 325.2 398.7 323.7L378.5 291 391.3 267.4 404.2 294.7 415.6 266.7 429.5 289.5 411.3 323.3C410.4 325 411.5 327 412.6 327.6 414.3 328.5 416 328 416.9 326.3L433.6 295.3 442.9 310.5 434.7 325.7C433.8 327.4 434.3 329.1 436 330.1 437.1 330.7 439.4 330.5 440.3 328.8L446.7 316.9 458.4 335.6C459.5 337.7 461.5 338 463 336.6 464.2 335.8 465.1 334.1 463.7 332.6L452.3 313.4 465.7 312.7C467.2 312.7 468.6 311.3 468.7 309.9 468.7 308.5 467.9 307.3 467.3 307 466.8 306.7 466.2 306.4 465.4 306.6L448.4 307 438.9 292.4 474.1 291.7C475.9 291.2 477.3 289.8 477.4 288.4 477.4 287 476.6 285.8 475.5 285.2 474.9 284.9 474.9 284.9 474 285.1L435.1 285.9 421.2 263.2 451.7 265.8 432.7 241.8 459.4 240.9 480.1 273.9C480.9 275.1 482.6 276 484.7 274.9 485.8 274.1 486.2 272.1 485.7 270.3L466.9 240.5 484.3 240.5 493.3 254.8C493.8 256.6 495.8 256.9 497.9 255.8 499 255 499.4 253 498.9 251.3L491.8 240.2 514.1 239.2C516.1 239.5 517.1 237.8 517.4 235.8 517.1 235 516.3 233.8 515.8 233.5 515.2 233.2 514.6 232.9 513.8 233.1L491.7 233.6 498.1 221.8C499 220.1 497.9 218 496.8 217.4L496.8 217.4C495.1 216.5 493.4 217 492.4 218.7L484.2 233.9 466.8 233.9 483.2 203.5C484.1 201.8 483.6 200.1 481.9 199.2S478.5 198.8 477.6 200.5L459.3 234.3 432.7 235.2 449.8 210.2 419.8 214.4 432.6 190.8 471 189.7C473.3 189.5 474.2 187.8 474.3 186.4 474.3 184.9 472.9 183.5 470.9 183.1L436.3 184 444.2 169.4 461.4 168.5C463.4 168.8 464.8 167.5 464.6 165.2 464.7 163.7 463.3 162.3 461.3 161.9L447.8 162.6 458.5 142.9C459.4 141.2 458.9 139.5 457.2 138.6S453.7 138.2 452.8 139.9L442.2 159.6 435.1 148.5C434.8 147.6 434.3 147.3 433.7 147 432.6 146.4 431.7 146.7 430.8 146.9 428.8 148 428.5 150 429.8 151.5L438.5 166.3 430.3 181.5 412.4 151.5C411.8 151.2 411.2 150.9 410.7 150.6 409.6 150 408.7 150.2 407.8 150.5 405.8 151.6 405.4 153.6 406.8 155L427 187.7 414.2 211.4 401.3 184.1 389.9 212.1 376 189.3 394.2 155.5C395.1 153.8 394 151.8 392.9 151.2 391.2 150.3 389.5 150.8 388.6 152.5L372.2 182.9 362.6 168.3 370.8 153.1C371.7 151.4 371.2 149.6 369.5 148.7S366.1 148.3 365.2 150L358.8 161.8 347.1 143.1C346.8 142.3 346.2 142 345.7 141.7 345.1 141.4 343.7 141.3 342.5 142.1 341.3 143 340.4 144.7 341.8 146.1ZM401.7 199.6L412.2 221.9 436.6 218.4 422.5 239.1 437.7 258.2 413.1 256.6 403.8 279.2 393.3 256.8 368.9 260.4 382.7 240.2 367.8 220.5 392.1 222.7 401.7 199.6Z" fill="rgba(194, 198, 240, 1)"></path><path d="M1293.1 45.8L1289.9 72.1 1271.2 86.6 1268 63.1 1284.3 42.1C1284.3 42.1 1284.4 41.8 1284.4 41.8 1284.6 41.2 1284.3 40.4 1283.8 39.9 1283 39.2 1281.9 39.4 1281.5 40.3L1267.4 58.7 1265.9 47.4 1272 39.2C1272 39.2 1272.1 38.9 1272.1 38.9 1272.3 38.3 1272 37.4 1271.5 36.9 1270.8 36.2 1269.6 36.5 1269.3 37.4L1264.9 42.9 1263.9 34.5C1263.8 33.8 1262.8 33 1262.1 33 1261 33 1260.6 34.1 1260.6 34.9L1261.7 43.2 1256.2 38.9C1255.4 38.3 1254.3 38.5 1253.9 39.4 1253.3 40.1 1253.5 41.3 1254.4 41.6L1262.6 47.8 1263.8 59 1245.4 44.9C1244.7 44.2 1243.5 44.5 1243.2 45.3 1242.5 46.1 1242.7 47.2 1243.6 47.6L1264.6 63.8 1267.8 87.3 1245.6 78.2 1235.3 53.5C1235 52.7 1234.1 52.3 1233.2 52.7 1232.4 53 1232 53.9 1232.4 54.8L1241.5 76.5 1230.8 72.1 1227 62.9C1226.6 62.1 1225.7 61.7 1224.9 62.1 1224.1 62.4 1223.7 63.3 1224 64.1L1226.7 70.4 1218.4 67C1217.6 66.3 1216.7 67 1216.3 67.9 1215.9 68.8 1216.3 69.6 1217.2 70L1224.9 73.1 1218.6 75.7C1217.8 76.1 1217.4 77 1217.7 77.8S1219 79 1219.8 78.7L1229 74.8 1239.7 79.2 1218 88.3C1217.1 88.6 1216.8 89.5 1217.1 90.3 1217.5 91.2 1218.3 91.5 1219.2 91.2L1243.8 80.9 1265.7 89.9 1247 104.3 1221.3 101.1C1220.3 101 1219.7 101.8 1219.3 102.7 1219.2 103.7 1220 104.3 1220.9 104.7L1243.9 107.6 1234.8 114.6 1224.7 113.2C1223.7 113.1 1223 113.9 1222.7 114.7 1222.6 115.8 1223.4 116.4 1223.9 116.7L1230.9 117.4 1224.3 122.7C1223.7 123.1 1223.2 124.3 1224 125 1224.8 125.6 1225.6 126 1226.3 125.2L1233 120 1232.2 127C1232.1 128 1232.9 128.6 1233.5 128.9 1234.2 128.8 1235 128.5 1235.3 127.9 1235.3 127.9 1235.4 127.6 1235.4 127.6L1236.8 117.4 1245.9 110.4 1243 133.5C1242.9 134.5 1243.7 135.1 1244.3 135.4 1245 135.3 1245.8 135 1246.1 134.4 1246.1 134.4 1246.2 134.1 1246.2 134.1L1249.4 107.7 1268.1 93.3 1271.3 116.7 1255.1 137.7C1254.4 138.5 1254.6 139.6 1255.5 140 1256.3 140.7 1257.4 140.4 1257.8 139.5L1271.9 121.1 1273.5 132.5 1267.4 140.7C1266.7 141.5 1266.9 142.6 1267.8 143 1268.6 143.6 1269.7 143.4 1270.1 142.5L1274.4 137 1275.5 145.4C1275.5 146.1 1276.6 146.9 1277.3 146.8 1278 146.8 1278.5 146.3 1278.8 145.7 1278.9 145.4 1279 145.1 1278.8 144.7L1277.8 136.3 1283.3 140.6C1284 141.3 1285.2 141.1 1285.5 140.2 1285.5 140.2 1285.7 139.9 1285.7 139.9 1285.9 139.3 1285.6 138.5 1285.1 137.9L1276.9 131.8 1275.3 120.4 1293.7 134.6C1294.5 135.2 1295.6 135 1296 134.1 1296 134.1 1296.1 133.8 1296.1 133.8 1296.4 133.2 1296 132.4 1295.5 131.8L1274.5 115.6 1271.3 92.2 1293.3 101.2 1303.6 125.8C1303.9 126.6 1304.8 127 1305.6 126.6 1306.5 126.3 1306.8 125.4 1306.5 124.6L1297.7 103 1308.4 107.4 1312.2 116.5C1312.5 117.4 1313.4 117.7 1314.3 117.4S1315.5 116.1 1315.1 115.3L1312.5 109.1 1320.2 112.2C1321.1 112.6 1321.9 112.2 1322.3 111.3 1322.6 110.4 1322.3 109.6 1321.4 109.2L1313.7 106.1 1320 103.5C1320.4 103.3 1320.8 103.1 1321.1 102.5S1321.1 101.5 1320.9 101.1C1320.6 100.3 1319.7 99.9 1318.9 100.3L1309.7 104.1 1299 99.7 1320.7 90.6C1321.2 90.5 1321.6 90.3 1321.8 89.7 1321.9 89.4 1321.9 88.7 1321.7 88.3 1321.4 87.4 1320.5 87.1 1319.6 87.4L1295 97.7 1273.1 88.7 1291.8 74.3 1318.2 77.5C1318.9 77.4 1319.7 77.1 1320 76.5 1320 76.5 1320.1 76.2 1320.1 76.2 1320.2 75.2 1319.4 74.5 1318.8 74.3L1295.8 71.4 1304.9 64.4 1315 65.8C1315.7 65.8 1316.6 65.4 1316.8 64.8 1316.8 64.8 1316.9 64.5 1316.9 64.5 1317 63.5 1316.2 62.9 1315.6 62.6L1308.7 61.8 1315.3 56.6C1315.5 56.3 1315.9 56.1 1316 55.8 1316.2 55.2 1316.2 54.5 1315.7 54 1314.9 53.3 1314.1 53 1313.4 53.7L1306.8 59 1307.5 52C1307.6 51 1306.8 50.4 1306.2 50.1 1305.2 50 1304.6 50.8 1304.3 51.4L1302.9 61.5 1293.8 68.5 1296.7 45.5C1296.8 44.5 1296 43.8 1295.4 43.6 1294.2 44.1 1293.2 44.8 1293.1 45.8Z" fill="rgba(195, 198, 229, 1)"></path><path d="M49.6 170L70.2 153.4 77.5 154 84.2 168.9 79.9 175 53.7 179.1C53.4 179.2 53.4 179.2 53.1 179.4 52.5 179.6 52.1 180.2 52.2 181.2 52.6 182.1 53.1 182.5 54.1 182.4L77 178.8 70.4 188.1 60.3 189.8C60.3 189.8 60 189.9 60 189.9 59.4 190.2 58.9 190.8 59 191.8 59 192.5 60 193.1 61 193L67.6 192.1 62.6 198.9C62.2 199.5 62.3 200.5 63 201.2S64.8 201.5 65.6 200.8L70.3 194.1 71.4 200.6C71.5 201.6 72.5 202.2 73.5 202.1 74.1 201.8 74.8 201.2 74.7 200.1L73 190 80 180.6 83.6 203.5C83.7 204.5 84.7 205.1 85.4 205.2 86.3 204.8 87 204.1 86.9 203.1L82.6 177 87.1 170.7 102.9 172.4 106.1 179.4 96.9 204.2C96.6 205 97 205.9 97.8 206.2S99.6 206.2 99.9 205.3L107.9 183.4 112.8 194.2 109.3 203.6C108.9 204.4 109.3 205.3 110.3 205.9S112 205.8 112.4 205L114.6 198.3 118.2 206.2C118.6 207.1 119.7 207.3 120.6 206.9 121.5 206.5 121.8 205.6 121.4 204.8L117.8 196.9 124.2 199.3C125.2 199.9 126 199.5 126.2 198.4 126.6 197.5 126.2 196.6 125.3 196.3L116 192.8 111.1 182 132.9 190.5C133.7 190.8 134.9 190.3 135.2 189.4S135.1 187.7 134.3 187.4L109.3 177.9 106.2 170.9 115.7 157.8 123.1 158.7 139.8 179.3C140.4 180 141.4 179.9 142.3 179.5 143.1 178.9 143 177.8 142.6 177L127.8 159 139.2 160.2 145.6 168.2C146.3 169 147.3 168.9 148.2 168.5 148.7 167.9 148.9 166.8 148.2 166L144.1 160.9 152.5 161.6C153.2 161.7 154 161 154.3 160.1 154.2 159.1 153.5 158.4 152.8 158.3L144.4 157.6 149.7 153.1C150.2 152.5 150.3 151.4 149.8 150.9 149.4 150 148.7 150 147.8 150.4 147.8 150.4 147.5 150.5 147.5 150.5L139.5 156.9 128.1 155.8 146 141C146.8 140.3 147.1 139.5 146.4 138.7 145.7 138 145 138 144.4 138.2 144.1 138.4 144.1 138.4 144.1 138.4L123.4 155.4 116 154.6 109.3 139.7 113.7 133.8 140.1 129.3C140.8 129.4 141.4 128.4 141.4 127.7 141.3 126.7 140.3 126 139.3 126.1L116.4 129.8 123.1 120.5 133.2 118.7C134.2 118.6 134.9 117.9 134.5 117.1 134.4 116.1 133.5 115.4 132.8 115.4L126 116.7 131 109.9C131.3 109.1 131.2 108.1 130.5 107.3 130.1 107.1 129.4 107.1 128.8 107.4 128.5 107.5 128.5 107.5 128.3 107.9L123.3 114.7 122 108C121.9 107 121.1 106.6 120.4 106.6 120.1 106.7 120.1 106.7 119.8 106.9 119.2 107.1 118.7 107.7 118.7 108.4L120.5 118.5 113.8 127.8 110.1 104.9C109.7 104 109 103.3 108.2 103.7 107.7 103.5 107.7 103.5 107.4 103.6 106.9 103.9 106.5 104.8 106.5 105.5L111 131.9 106.6 137.7 90.5 136.2 87.5 129.5 97 104.5C97.3 103.7 96.8 102.5 95.9 102.2S93.9 102.4 93.6 103.2L85.5 125.1 80.8 114.6 84.2 105C84.5 104.1 84.1 103.3 83.3 103 82.4 102.6 81.6 103 81.2 103.9L78.8 110.2 75.3 102.3C75 101.8 74 101.1 73.2 101.5 72.3 101.9 71.8 103.2 72.1 103.8L75.6 111.7 69.3 109.3C68.8 109.1 68.4 108.9 68.1 109.1 67.5 109.3 67.4 109.8 67.2 110.2 66.9 111 67.3 111.9 68.1 112.2L77.6 116 82.3 126.5 60.6 118.1C60.2 117.9 59.9 118 59.3 118.3 59 118.4 58.7 118.6 58.6 119 58.2 119.8 58.8 121 59.6 121.3L84.3 130.9 87.3 137.6 78 150.6 70.5 150.1 53.7 129.3C53.1 128.8 52.3 128.5 51.7 128.7 51.4 128.9 51.4 128.9 51.6 129.2 50.7 129.6 50.5 130.7 51.2 131.4L65.9 149.4 54.2 148.3 47.8 140.3C47.3 139.9 46.5 139.8 46 140.1 46 140.1 45.7 140.2 45.7 140.2 44.8 140.6 44.6 141.8 45.3 142.5L49.8 147.9 41.4 147.1C41 146.9 40.7 147.1 40.4 147.2 39.8 147.5 39.3 148 39.5 148.3 39.3 149.4 40 150.2 40.8 150.5L49.2 151.3 44 155.4C43.3 156 43.1 157.2 43.8 157.9 44.4 158.4 45.5 158.6 45.9 158L53.9 151.6 65.4 152.8 47.4 167.5C46.7 168.2 46.8 169.2 47.2 170.1 47.7 170.5 48.9 170.7 49.6 170ZM86.6 165.7L81.5 154.3 80.7 152.5 81.8 151 88.9 141.1 90.2 139.5 92.1 139.7 104.2 140.9 106.1 141.1 106.9 142.9 112 154.2 112.8 156 111.7 157.5 104.6 167.4 103.5 168.9 101.4 168.9 89.2 167.6 87.4 167.4 86.6 165.7Z" fill="rgba(230, 232, 255, 1)"></path><path d="M58.4 515.6L73.5 515.8 68.6 524.7C68 525.6 68.3 527.1 69.4 528.1 70.8 528.4 72.2 528.1 72.8 527.3L79.5 515.7 93.5 516 79.7 539.4C79 540.9 79.2 542.4 80.6 542.7 81.7 543.8 83.2 543.5 84 541.9L99.1 516.2 111.8 516.1 126.3 541.6 120.8 551.3 88.9 550.7C88.5 550.9 88.1 551.2 87.7 551.4 87.3 551.6 86.7 552.5 86.5 553.2 86.4 554.9 87.5 555.9 89 555.6L118 556.2 110.9 568 96.1 568.1C95.9 567.7 95.5 568 95 568.2 94.2 568.7 93.6 569.6 93.7 570.6 93.7 571.7 94.9 572.7 96.2 573.1L108.2 572.9 99.5 587.7C98.9 588.6 99.2 590.1 100.4 591.1 101.7 591.5 103.2 591.2 103.8 590.3L111.8 576.3 116.8 585.1C117.5 586.3 119.3 586.4 120.1 586 121.3 585.3 122.1 583.7 121.4 582.5L115 571.2 122.1 559.4 135.4 582.8C136.1 584 137.4 584.4 138.7 583.7 139.9 583 140.3 581.7 139.6 580.4L124.8 554.5 130.5 544.1 160 544.5 165.4 554.1 150.1 580.5C149.1 581.6 149.6 583.5 150.9 583.9 152.1 584.9 153.3 584.2 154.3 583L168.3 559.1 175.2 571.2 168.1 582.9C167.5 583.8 168 585.7 168.9 586.3S171.7 586.4 172.7 585.3L178 576.2 186.3 590.8C187.1 592 188.8 592.1 190 591.4 190.9 591 191.6 589.4 190.9 588.2L182.6 573.6 193.6 573.4C194.6 573.3 195.9 572.6 196 570.9 196 569.8 194.6 568.4 193.5 568.5L179.8 568.6 172.9 556.5 200.6 556.7C202.1 556.4 203.4 555.7 203.5 553.9 203.4 552.9 202.1 551.4 201 551.5L170 551.5 164.6 541.9 179.3 516.3 191.2 516.8 205.9 542.6C206.6 543.9 207.9 544.2 209.2 543.5 210.4 542.8 211.2 541.3 210.5 540L197.2 516.7 210.9 516.6 217.3 527.8C218 529.1 219.4 529.4 220.6 528.7 221.9 528 222.2 526.7 221.5 525.5L216.5 516.7 232.7 516.9C233.7 516.8 235.2 515.5 235.1 514.4 234.8 512.9 234.1 511.7 232.6 512L215.8 511.6 221.7 501.6C222.1 500.3 221.8 498.8 220.9 498.2 220 497.6 218.9 497.6 218.1 498.1 218.1 498.1 217.7 498.4 217.5 499L209.8 511.7 196 511.8 210.4 486.5C211.4 485.4 211.1 483.9 209.5 483.1 208.9 482.9 208.2 482.7 207.4 483.2 207 483.5 206.6 483.7 206.1 483.9L190.4 511.7 179.3 511.4 164.8 486 171.3 475.1 201.2 475.2C202.9 475.3 203.9 474.2 203.6 472.7 204 471.4 202.8 470.4 201.1 470.2L174 470.2 180.9 458 194.2 458.1C195.3 458.1 196.3 456.9 196.7 455.6 196.4 454.1 195.7 452.9 194.2 453.2L184 452.9 191.5 439.8C192.5 438.7 191.8 437.4 190.7 436.4 190 436.2 189 436.3 188.1 436.8 188.1 436.8 187.7 437 187.3 437.2L179.2 451.2 173.3 440.8C172.8 439.9 171.3 439.2 170 439.9 168.8 440.6 168.6 442.3 169.1 443.2L176.5 456.1 169.6 468.3 155.1 442.8C154.4 441.6 152.7 441.5 151.4 442.2S149.8 444.2 150.5 445.4L166.5 473.4 160.5 483.4 131.1 483 124.9 472.2 140.7 445.6C141 444.2 140.7 442.8 139.6 441.7 138.9 441.6 137.9 441.6 137 442.1 136.6 442.3 136.2 442.6 136 443.2L122 467.2 115.2 455.1 122 442.9C122.6 442 122.3 440.5 121.2 439.5 119.9 439.2 118.4 439.4 117.8 440.3L112.3 450.1 104.7 436.7C104.2 435.9 102.3 435.4 101.4 435.8 100.2 436.6 99.6 438.5 100.1 439.4L107.7 452.7 96.9 452.2C96.5 452.5 96.1 452.7 95.7 452.9 94.9 453.4 94.3 454.3 94.1 454.9 94.4 456.4 95.5 457.5 96.8 457.8L110.6 457.7 117.5 469.8 89.7 469.6C88 469.5 87 470.6 87 471.7 86.9 473.4 88 474.4 89.3 474.8L120.3 474.8 126.5 485.7 111.7 511.2 100.1 511.2 84.2 483.2C83.5 482 82.2 481.6 80.9 482.3 79.7 483 79.3 484.3 80 485.6L94.5 511 80.5 510.7 73.2 497.8C72.7 497 70.7 496.4 69.5 497.1 68.2 497.8 68.1 499.6 68.6 500.4L74.5 510.8 58.4 510.6C58 510.9 58 510.9 57.6 511.1 56.7 511.6 56.1 512.5 56 513.1 56.2 514.6 57.4 515.6 58.4 515.6ZM129.3 490.7L131.1 488 133.9 488.1 157.8 488.3 160.6 488.3 162 490.8 173.7 511.3 175.1 513.8 173.7 516.2 161.7 536.9 160.3 539.3 157.1 539.5 133.7 539 130.5 539.2 129 536.7 117.4 516.2 116 513.7 117.8 511.1 129.3 490.7Z" fill="rgba(194, 198, 240, 1)"></path><path d="M712.2 151.7L697.2 129.8 701.7 106.6 719.6 122 721.3 148.5C721.3 148.5 721.4 148.8 721.4 148.8 721.6 149.4 722.4 149.8 723.1 149.9 724.1 149.9 724.8 149 724.5 148.1L722.9 124.9 731.6 132.4 732.4 142.6C732.4 142.6 732.5 142.9 732.5 142.9 732.8 143.6 733.6 143.9 734.3 144 735.3 144 736 143.1 735.7 142.2L735.3 135.2 741.6 140.8C742.1 141.3 743.5 141.2 744 140.7 744.8 140.1 744.3 138.9 743.8 138.4L737.5 132.8 744.5 132.4C745.5 132.4 746.2 131.5 745.9 130.5 745.9 129.5 744.9 128.8 744 129.2L733.8 130 725.4 122.4 748.6 120.8C749.6 120.8 750.3 119.9 750 119 750 118 749 117.3 748.1 117.6L721.6 119.3 703.8 103.8 726.4 96 750.5 107.6C751.3 108 752.2 107.7 752.6 106.9 753 106.1 752.7 105.2 751.8 104.8L730.7 94.5 741.6 90.7 750.5 95.1C751.3 95.5 752.2 95.2 752.6 94.3 753 93.5 752.7 92.6 751.9 92.2L745.8 89.3 754.3 86.3C755.3 86.3 755.6 85.2 755.3 84.3 754.9 83.4 754.1 83 753.2 83.3L745.4 86 748.3 79.9C748.7 79.1 748.4 78.2 747.6 77.8S745.9 77.7 745.5 78.5L741.1 87.5 730.2 91.3 740.5 70.1C740.9 69.3 740.6 68.4 739.8 68 739 67.6 738.1 67.9 737.7 68.7L726 92.7 703.6 100.5 708.1 77.2 729.5 62.7C730.3 62.1 730.3 61.1 730 60.2 729.4 59.4 728.4 59.4 727.4 59.7L708.3 72.8 710.5 61.5 719 55.9C719.8 55.3 719.8 54.2 719.5 53.3 718.9 52.5 717.8 52.5 717.2 52.8L711.5 56.8 713 48.4C713.1 47.7 712.7 46.5 711.7 46.5 710.7 46.6 709.8 46.9 709.8 47.9L708.3 56.2 704.3 50.5C703.6 49.7 702.6 49.7 702 49.9 701.5 50.4 701.1 51.2 701.3 51.8 701.3 51.8 701.4 52.1 701.4 52.1L707.1 60.7 704.9 71.9 691.8 52.7C691.2 51.9 690.2 51.9 689.6 52.2 689.1 52.7 688.7 53.5 688.9 54.1 688.9 54.1 689 54.4 689 54.4L704.1 76.3 699.6 99.5 681.7 84 680 57.5C679.9 56.5 679 55.8 678.1 56.1 677.1 56.1 676.4 57.1 676.7 58L678.3 81.1 669.6 73.6 668.8 63.4C668.8 62.4 667.9 61.7 667 62 665.9 62 665.2 63 665.6 63.9L665.9 70.8 659.6 65.3C659.1 64.8 657.8 64.9 657.3 65.4 656.8 65.9 656.7 66.6 656.9 67.2 657 67.5 657.1 67.8 657.5 68L663.8 73.6 656.9 74C655.9 74 655.2 74.9 655.5 75.8 655.5 75.8 655.6 76.1 655.6 76.1 655.8 76.7 656.6 77.1 657.3 77.2L667.5 76.4 676.2 83.9 653.1 85.5C652 85.5 651.3 86.4 651.7 87.3 651.7 87.3 651.8 87.6 651.8 87.6 652 88.2 652.8 88.6 653.5 88.7L680 87 697.9 102.5 675.5 110.2 651.5 98.5C650.7 98.1 649.8 98.5 649.4 99.3 649 100.1 649.3 101 650.1 101.4L671 111.8 660.1 115.5 651.1 111.2C650.3 110.8 649.4 111.1 649 111.9S648.9 113.6 649.7 114L655.8 117 648 119.7C647.1 120 646.7 120.9 647 121.8 647.3 122.7 648.1 123.1 649 122.8L656.9 120 653.9 126.1C653.7 126.5 653.5 127 653.7 127.6S654.4 128.4 654.8 128.6C655.6 129 656.5 128.6 656.9 127.8L661.2 118.9 672.1 115.1 661.8 136.3C661.6 136.7 661.4 137.1 661.6 137.7 661.7 138 662.3 138.5 662.7 138.7 663.5 139.1 664.4 138.8 664.8 138L676.5 113.9 698.8 106.2 694.3 129.4 672.4 144.4C671.9 145 671.6 145.8 671.8 146.4 671.8 146.4 671.9 146.7 671.9 146.7 672.5 147.5 673.5 147.5 674.1 147.3L693.3 134.2 691.1 145.4 682.5 151.1C682 151.6 681.6 152.4 681.9 153 681.9 153 682 153.3 682 153.3 682.6 154.1 683.6 154.1 684.2 153.9L689.9 149.9 688.4 158.2C688.5 158.5 688.3 158.9 688.4 159.2 688.6 159.8 689.1 160.3 689.8 160.4 690.8 160.4 691.8 160.1 691.7 159.1L693.3 150.8 697.3 156.5C697.9 157.3 698.9 157.3 699.5 157.1 700.3 156.5 700.3 155.5 700.1 154.9L694.4 146.3 696.6 135.1 709.7 154.2C710.3 155 711.3 155 711.9 154.8 712.5 153.6 712.8 152.5 712.2 151.7Z" fill="rgba(195, 198, 229, 1)"></path><path d="M801.3 457L807.5 489.6 790.8 513.9 778 487.2 789.3 456C789.3 456 789.3 455.6 789.3 455.6 789.4 454.8 788.7 454 787.9 453.5 786.7 453 785.5 453.7 785.4 454.9L775.6 482.2 769.4 469.3 773.6 457.2C773.6 457.2 773.6 456.8 773.6 456.8 773.6 456 772.9 455.1 772.1 454.7 771 454.2 769.7 454.9 769.6 456.1L766.6 464.3 762.1 454.7C761.8 453.9 760.2 453.3 759.4 453.7 758.2 454 758 455.6 758.4 456.4L762.8 466 754.6 462.9C753.5 462.4 752.2 463.1 752.1 464.3 751.6 465.5 752.3 466.8 753.5 466.9L765.6 471 771.5 483.9 744.1 474.1C743 473.7 741.7 474.4 741.6 475.6 741.1 476.7 741.8 478 743 478.1L774.2 489.3 787 516 757.1 513.7 735.4 488.3C734.7 487.4 733.5 487.4 732.6 488.1 731.7 488.8 731.7 490 732.4 490.9L751.5 513.2 737.1 512.1 729.1 502.7C728.3 501.8 727.1 501.7 726.3 502.4 725.4 503.2 725.3 504.4 726 505.2L731.6 511.7 720.4 510.8C719.2 510.3 718.3 511.4 718.2 512.6 718.1 513.8 718.9 514.7 720.1 514.8L730.4 515.6 724 521.1C723.1 521.8 723 523 723.8 523.9S725.7 524.9 726.6 524.1L736 516 750.4 517.2 728 536.3C727.2 537 727.1 538.2 727.8 539.1 728.5 539.9 729.7 540 730.6 539.3L756 517.6 785.5 519.9 768.7 544.3 737 550.2C735.7 550.5 735.2 551.7 735.1 552.9 735.4 554.1 736.6 554.6 737.8 554.7L766.3 549.3 758.2 561.1 745.6 563.3C744.3 563.6 743.8 564.8 743.7 566 744 567.2 745.2 567.7 746 567.8L754.6 566 748.7 574.8C748.2 575.6 748.1 577.2 749.2 577.7 750.4 578.2 751.6 578.3 752.1 577.1L758 568.3 759.7 576.9C760 578.1 761.2 578.6 762 578.7 762.8 578.3 763.7 577.6 763.8 576.8 763.8 576.8 763.8 576.4 763.8 576.4L761.6 563.8 769.7 552 775.1 580.5C775.4 581.7 776.6 582.2 777.4 582.3 778.2 581.9 779.1 581.2 779.1 580.4 779.1 580.4 779.2 580 779.2 580L772.9 547.4 789.6 523.1 802.4 549.7 791.1 581C790.6 582.1 791.3 583.4 792.5 583.5 793.7 584 794.9 583.3 795 582.1L804.8 554.7 811 567.7 806.9 579.8C806.4 580.9 807.1 582.2 808.3 582.3 809.4 582.8 810.7 582.1 810.8 580.9L813.8 572.7 818.3 582.3C818.6 583.1 820.2 583.6 821 583.3 821.9 583 822.3 582.2 822.4 581.4 822.4 581 822.4 580.6 822.1 580.2L817.6 570.6 825.8 573.6C827 574.1 828.2 573.4 828.3 572.2 828.3 572.2 828.3 571.8 828.3 571.8 828.4 571 827.7 570.2 826.9 569.7L814.8 565.6 808.6 552.6 835.9 562.4C837.1 562.9 838.3 562.2 838.4 561 838.4 561 838.5 560.6 838.5 560.6 838.5 559.8 837.8 558.9 837 558.5L805.8 547.2 793.1 520.5 822.6 522.8 844.2 548.2C845 549.1 846.2 549.2 847 548.4 847.9 547.7 848 546.5 847.3 545.6L828.5 523.3 842.9 524.4 851 533.9C851.7 534.8 852.9 534.8 853.8 534.1S854.7 532.2 854 531.3L848.5 524.9 858.9 525.7C860 525.8 860.9 525 861 523.8 861.1 522.7 860.4 521.8 859.2 521.7L848.8 520.9 855.2 515.4C855.7 515 856.1 514.6 856.2 513.8S855.9 512.6 855.5 512.2C854.8 511.3 853.6 511.2 852.7 512L843.2 520 828.9 518.9 851.3 499.8C851.7 499.4 852.1 499.1 852.2 498.3 852.2 497.9 851.9 497.1 851.5 496.6 850.8 495.8 849.6 495.7 848.7 496.4L823.3 518.1 793.8 515.8 810.6 491.4 843.2 485.1C844 484.8 844.9 484.1 844.9 483.3 844.9 483.3 845 482.9 845 482.9 844.7 481.6 843.5 481.1 842.7 481.1L814.2 486.5 822.3 474.7 834.9 472.4C835.8 472.1 836.6 471.4 836.7 470.6 836.7 470.6 836.7 470.2 836.7 470.2 836.4 469 835.3 468.5 834.5 468.4L825.9 470.1 831.8 461.4C831.8 461 832.3 460.6 832.3 460.2 832.4 459.4 832 458.6 831.3 458.1 830.1 457.6 828.9 457.5 828.4 458.7L822.5 467.5 820.8 458.9C820.5 457.7 819.3 457.2 818.5 457.1 817.3 457.4 816.8 458.6 816.7 459.4L818.9 472 810.8 483.8 805.4 455.3C805.1 454.1 803.9 453.6 803.1 453.5 801.8 454.6 801 455.7 801.3 457Z" fill="rgba(194, 198, 240, 1)"></path><path d="M1435.2 253.1L1419.9 274.8 1396.5 278.7 1404.8 256.5 1429.1 245.7C1429.1 245.7 1429.3 245.5 1429.3 245.5 1429.8 245.1 1429.9 244.2 1429.7 243.5 1429.4 242.6 1428.3 242.2 1427.5 242.8L1406.4 252.4 1410.4 241.6 1419.6 237.3C1419.6 237.3 1419.9 237.1 1419.9 237.1 1420.4 236.7 1420.5 235.8 1420.3 235.1 1420 234.1 1418.8 233.8 1418.1 234.4L1411.7 237.2 1414.7 229.3C1415 228.7 1414.5 227.5 1413.8 227.2 1413 226.6 1412 227.4 1411.7 228.1L1408.6 236 1405.8 229.6C1405.5 228.6 1404.4 228.3 1403.6 228.9 1402.7 229.3 1402.4 230.4 1403 231.1L1407.3 240.4 1403.1 250.9 1393.6 229.7C1393.2 228.8 1392.1 228.5 1391.3 229.1 1390.4 229.4 1390.1 230.5 1390.7 231.3L1401.5 255.5 1393.2 277.7 1378 259.1 1380.5 232.6C1380.6 231.7 1380 230.9 1379.1 230.8 1378.2 230.8 1377.5 231.4 1377.4 232.3L1375.1 255.7 1367.8 246.8 1368.8 236.9C1368.8 236 1368.2 235.2 1367.3 235.2 1366.4 235.1 1365.7 235.7 1365.6 236.6L1365 243.3 1359.3 236.4C1358.9 235.5 1357.7 235.6 1357 236.2 1356.3 236.8 1356.2 237.7 1356.8 238.4L1362.1 244.9 1355.3 244.2C1354.4 244.1 1353.7 244.7 1353.6 245.6S1354.1 247.3 1355 247.4L1364.9 248.3 1372.2 257.2 1348.8 254.9C1347.9 254.9 1347.2 255.5 1347.1 256.4 1347 257.3 1347.6 258 1348.5 258.1L1375.1 260.7 1390.1 279 1366.8 282.8 1345.7 267.8C1344.9 267.3 1343.9 267.7 1343.2 268.3 1342.7 269.1 1343 270.1 1343.6 270.8L1362.6 284.2 1351.2 286.1 1343 280.1C1342.1 279.5 1341.2 279.9 1340.4 280.5 1339.9 281.4 1340.2 282.3 1340.6 282.8L1346.4 286.8 1338.1 288.2C1337.4 288.4 1336.4 289.2 1336.7 290.1 1337.1 291.1 1337.7 291.8 1338.7 291.5L1347 290 1343 295.8C1342.5 296.6 1342.8 297.6 1343.3 298.1 1343.9 298.3 1344.8 298.4 1345.3 298 1345.3 298 1345.6 297.8 1345.6 297.8L1351.6 289.5 1362.9 287.7 1349.5 306.6C1348.9 307.5 1349.3 308.4 1349.7 308.9 1350.4 309.2 1351.3 309.3 1351.7 308.9 1351.7 308.9 1352 308.7 1352 308.7L1367.3 287 1390.6 283.1 1382.3 305.3 1358.1 316.1C1357.1 316.5 1356.8 317.6 1357.4 318.3 1357.8 319.3 1358.9 319.6 1359.6 319L1380.8 309.4 1376.8 320.2 1367.5 324.5C1366.6 324.9 1366.2 326 1366.8 326.7 1367.2 327.7 1368.3 328 1369 327.4L1375.5 324.6 1372.4 332.5C1372.1 333.1 1372.7 334.3 1373.3 334.6 1374 334.9 1374.7 334.8 1375.2 334.4 1375.4 334.2 1375.7 334 1375.7 333.5L1378.8 325.6 1381.6 332C1381.9 333 1383 333.3 1383.8 332.7 1383.8 332.7 1384 332.5 1384 332.5 1384.5 332.1 1384.6 331.2 1384.4 330.5L1380.1 321.2 1384.1 310.4 1393.6 331.6C1394 332.6 1395.1 332.9 1395.8 332.3 1395.8 332.3 1396.1 332.1 1396.1 332.1 1396.6 331.7 1396.7 330.8 1396.5 330.1L1385.7 305.8 1394 283.7 1409 302 1406.4 328.5C1406.4 329.4 1407 330.2 1407.9 330.3 1408.8 330.4 1409.5 329.7 1409.6 328.8L1412.1 305.7 1419.4 314.6 1418.4 324.5C1418.3 325.4 1419 326.1 1419.9 326.2S1421.5 325.7 1421.6 324.8L1422.2 318 1427.5 324.4C1428.1 325.2 1429 325.3 1429.8 324.7 1430.5 324.1 1430.6 323.2 1430 322.4L1424.7 316 1431.5 316.6C1431.9 316.7 1432.4 316.7 1432.9 316.3S1433.4 315.5 1433.4 315C1433.5 314.1 1432.9 313.4 1432 313.3L1422.1 312.3 1414.8 303.4 1438.2 305.7C1438.7 305.8 1439.1 305.8 1439.6 305.4 1439.9 305.2 1440.2 304.5 1440.2 304.1 1440.3 303.2 1439.7 302.4 1438.8 302.4L1412.2 299.8 1397.2 281.5 1420.5 277.6 1442.2 292.9C1442.8 293.2 1443.7 293.3 1444.2 292.9 1444.2 292.9 1444.5 292.7 1444.5 292.7 1445 291.8 1444.7 290.9 1444.3 290.4L1425.3 276.9 1436.7 275.1 1444.9 281.1C1445.6 281.4 1446.5 281.5 1447 281.1 1447 281.1 1447.2 280.9 1447.2 280.9 1447.8 280 1447.4 279.1 1447 278.6L1441.2 274.6 1449.6 273.2C1449.8 273 1450.3 273 1450.5 272.8 1451 272.4 1451.3 271.7 1451.1 271 1450.8 270.1 1450.2 269.4 1449.2 269.7L1440.9 271.2 1444.9 265.4C1445.4 264.6 1445 263.6 1444.6 263.1 1443.8 262.6 1442.8 263 1442.3 263.4L1436.3 271.6 1425 273.5 1438.4 254.6C1439 253.7 1438.6 252.8 1438.2 252.3 1436.8 252.1 1435.7 252.3 1435.2 253.1Z" fill="rgba(230, 232, 255, 1)"></path><path d="M567.5 493.2L545.2 460.4 546.9 449.6 570 441.4 578.7 448.5 581.5 488.2C581.7 488.7 581.7 488.7 581.8 489.1 582.2 490 582.9 490.8 584.5 490.8 585.8 490.3 586.6 489.5 586.5 488L583.9 453.3 597 464.4 598.4 479.7C598.4 479.7 598.5 480.2 598.5 480.2 598.8 481.1 599.6 481.8 601.1 481.8 602.2 481.9 603.2 480.5 603.2 479L602.7 469 612.3 477.3C613.1 478.1 614.6 478.1 615.8 477.1S616.3 474.4 615.4 473.2L606 465.3 615.8 464.4C617.4 464.3 618.4 463 618.4 461.4 618 460.5 617.1 459.3 615.6 459.4L600.3 460.7 587 449.1 621.7 446.5C623.3 446.5 624.3 445.1 624.4 444 623.9 442.7 623 441.5 621.5 441.5L581.9 444.8 573.1 437.2 577.6 413.8 588.4 409.9 624.4 426.7C625.6 427.3 627 426.8 627.6 425.6S627.7 423 626.4 422.4L594.7 407.7 611.5 401.7 625 408.2C626.2 408.8 627.6 408.3 628.6 406.9S628.7 404.3 627.5 403.7L617.8 399.5 630 395.2C631.4 394.7 631.8 393 631.3 391.7 630.9 390.3 629.6 389.7 628.3 390.2L616.1 394.5 620.4 385.3C621.5 384 621 382.6 619.3 382.2 618.1 381.6 616.7 382.1 616.2 383.3L609.7 396.8 593 402.7 608.3 371.3C608.9 370.1 608.3 368.3 607.1 367.7S604.5 367.6 603.9 368.8L586.7 404.9 575.8 408.8 557.4 392.9 559.7 381.9 592.5 359.6C593.7 358.7 593.7 357.1 593.2 355.8 592.2 354.6 590.7 354.6 589.4 355.1L560.7 374.9 563.9 358 576.7 349.4C577.9 348.5 577.8 347 577.4 345.6 576.6 344.9 574.9 344.4 573.7 345.4L565.5 350.8 567.7 338.3C567.8 337.3 566.8 336.1 565.6 335.5 564.1 335.5 562.9 336.5 562.8 337.5L560.6 350 554.5 341.5C553.7 340.7 552.1 340.3 551.3 341.1 549.9 341.6 549.8 342.6 550.3 344 550.3 344 550.5 344.4 550.5 344.4L559 357.2 555.9 374.1 536.1 345.5C535.1 344.3 533.9 343.7 532.7 344.6 531.5 345.5 531.4 346.6 531.7 347.5 531.8 348 531.8 348 531.8 348L554.8 381.1 552.6 392.1 529.5 400.2 521.3 392.9 517.8 352.9C518 351.9 516.6 350.8 515.5 350.7 514 350.7 512.9 352.1 513 353.6L515.6 388.3 502.5 377.2 501.1 361.9C501.1 360.4 500.2 359.2 498.8 359.7 497.3 359.7 496.3 361.1 496.1 362.1L497.2 372.4 487.7 364.1C486.4 363.5 484.9 363.6 483.7 364.5 483.4 365.1 483.3 366.2 483.6 367.1 483.8 367.5 483.8 367.5 484.4 367.8L494 376.1 483.7 377.3C482.1 377.3 481.6 378.5 481.4 379.6 481.6 380 481.6 380 481.7 380.5 482.1 381.4 482.8 382.1 483.9 382.3L499.2 380.9 512.3 392.1 477.6 394.7C476.3 395.2 475.1 396.1 475.5 397.4 475.2 398.1 475.2 398.1 475.4 398.5 475.7 399.4 476.9 400 478 400.1L518 396.7 526.2 403.9 521.9 427.9 511.5 431.5 475.4 414.3C474.2 413.7 472.4 414.4 471.8 415.6S471.8 418.6 473.1 419.2L504.8 433.9 488.5 439.7 474.5 433.4C473.3 432.9 472 433.3 471.4 434.6 470.8 435.8 471.3 437.1 472.5 437.7L481.7 442.1 469.5 446.4C468.6 446.8 467.5 448.1 468 449.5 468.5 450.9 470.3 451.7 471.2 451.4L483.4 447.1 479.1 456.3C478.8 456.9 478.5 457.5 478.6 458 479 458.9 479.6 459.2 480.2 459.4 481.4 460 482.8 459.6 483.3 458.3L490.2 444.7 506.5 438.9 491.2 470.3C490.9 470.9 491 471.4 491.3 472.3 491.5 472.7 491.7 473.2 492.3 473.5 493.5 474.1 495.3 473.4 495.9 472.2L513.3 436.5 523.7 432.8 541.9 448.3 540.3 459.5 507 482C506.3 482.8 505.7 484 506 484.9 506.2 485.4 506.2 485.4 506.6 485.2 507.1 486.6 508.8 487 510 486.1L538.6 466.3 535.6 483.6 522.8 492.2C522.1 493 522 494 522.3 494.9 522.3 494.9 522.4 495.4 522.4 495.4 522.9 496.8 524.6 497.2 525.8 496.3L534.3 490.2 532.1 502.7C531.9 503.3 532 503.7 532.2 504.2 532.5 505.1 533.3 505.8 533.7 505.7 535.4 506.1 536.6 505.2 537.2 503.9L539.4 491.4 544.8 499.7C545.8 500.9 547.5 501.3 548.6 500.4 549.4 499.6 549.8 497.9 549 497.2L540.5 484.4 543.6 467.5 563.4 496.2C564.4 497.4 565.9 497.3 567.3 496.8 568 496.1 568.4 494.4 567.5 493.2ZM565.5 437.4L547.9 443.6 545.2 444.6 543 442.8 529.1 430.9 526.8 428.7 527.4 425.9 530.7 408 531.2 405.2 534 404.3 551.6 398 554.3 397 556.5 398.8 570.4 410.7 572.5 412.5 572.1 415.7 568.8 433.7 568.3 436.4 565.5 437.4Z" fill="rgba(230, 232, 255, 1)"></path></g><defs><mask id="SvgjsMask1036"><rect width="1440" height="560" fill="#ffffff"></rect></mask><filter id="SvgjsFilter1037"><feGaussianBlur stdDeviation="1"></feGaussianBlur></filter></defs></svg>